<mxfile host="app.diagrams.net" agent="Mozilla/5.0 (Windows NT 10.0; Win64; x64) AppleWebKit/537.36 (KHTML, like Gecko) Chrome/132.0.0.0 Safari/537.36" version="26.0.8">
  <diagram id="LlavTpwOBpm4joZmQ7Ki" name="ERD Diagram">
    <mxGraphModel dx="2924" dy="4388" grid="1" gridSize="10" guides="1" tooltips="1" connect="1" arrows="1" fold="1" page="1" pageScale="1" pageWidth="850" pageHeight="1100" math="0" shadow="0">
      <root>
        <mxCell id="0" />
        <mxCell id="1" parent="0" />
        <UserObject label="" plantUmlData="{&#xa;  &quot;data&quot;: &quot;@startuml\n&#39; Define User table\nentity User {\n    userId int PK\n    username String UNIQUE\n    password String\n    email String UNIQUE\n    name String\n}\n\n&#39; Define Customer table\nentity Customer {\n    customerId int PK\n    address String\n    phoneNumber String\n    userId int FK\n}\n\n&#39; Define Admin table\nentity Admin {\n    adminId int PK\n    userId int FK\n}\n\n&#39; Define Staff table\nentity Staff {\n    staffId int PK\n    userId int FK\n}\n\n&#39; Define Restaurant table\nentity Restaurant {\n    restaurantId int PK\n    contactInfo String\n}\n\n&#39; Define Menu table\nentity Menu {\n    menuId int PK\n    restaurantId int FK\n    description String\n}\n\n&#39; Define MenuItem table\nentity MenuItem {\n    menuItemId int PK\n    menuId int FK\n    name String\n    description String\n    price decimal\n    calories int\n    protein int\n    carbohydrate int\n    sensitiveSource String\n    category String\n}\n\n&#39; Define Order table\nentity \&quot;Order\&quot; {\n    orderId int PK\n    customerId int FK\n    orderDate Date\n    orderStatus String\n    totalAmount decimal\n    paymentStatus String\n}\n\n&#39; Define Payment table\nentity Payment {\n    paymentId int PK\n    orderId int FK\n    paymentDate Date\n    paymentMethodId int FK\n}\n\n&#39; Define PaymentMethod table\nentity PaymentMethod {\n    paymentMethodId int PK\n    paymentMethodName String\n}\n\n\n&#39; Define CustomerProfile table\nentity CustomerProfile {\n    profileId int PK\n    customerId int FK\n    height double\n    weight double\n    allergy String\n}\n\n&#39; Define Notification table\nentity Notification {\n    notificationId int PK\n    customerId int FK\n    notificationTypeId int FK\n    message String\n    timestamp Date\n}\n\n&#39; Define NotificationType table\nentity NotificationType {\n    notificationTypeId int PK\n    typeName String\n}\n\n&#39; Define Review table\nentity Review {\n    reviewId int PK\n    customerId int FK\n    restaurantId int FK\n    rating int\n    comment String\n    reviewDate Date\n}\n\n&#39; Define Ingredient table\nentity Ingredient {\n    ingredientId int PK\n    ingredientName String\n}\n\n&#39; Define OrderItem table\nentity OrderItem {\n    orderItemId int PK\n    orderId int FK\n    menuItemId int FK\n    quantity int\n}\n\n&#39; Define Coupon table\nentity Coupon {\n    couponId int PK\n    couponCode String UNIQUE\n    discount double\n    expirationDate Date\n    minPurchaseAmount double\n}\n\n&#39; Define CouponUsage table\nentity CouponUsage {\n    usageId int PK\n    orderId int FK\n    couponId int FK\n    usageDate Date\n}\n\n&#39; Define RestaurantBranch table\nentity RestaurantBranch {\n    branchId int PK\n    restaurantId int FK\n    branchLocation String\n    branchContactInfo String\n}\n\n&#39; Define SystemLog table\nentity SystemLog {\n    logId int PK\n    logDate Date\n    logMessage String\n    logLevel String\n}\n\n&#39; Define Recommendation table\nentity Recommendation {\n    recommendationId int PK\n    customerId int FK\n    menuItemId int FK\n    score double\n    recommendationModelId int FK\n}\n\n&#39; Define RecommendationModel table\nentity RecommendationModel {\n    modelId int PK\n    modelName String\n    modelVersion String\n    trainingDate Date\n}\n\n\n&#39; Define Role and Permission tables\nentity Role {\n    roleId int PK\n    roleName String\n}\n\nentity Permission {\n    permissionId int PK\n    permissionName String\n}\n\n&#39; Define Relationships\n\n&#39; User inheritance\nUser &lt;|-- Customer\nUser &lt;|-- Admin\nUser &lt;|-- Staff\n\n&#39; Restaurant manages Menu\nRestaurant \&quot;1\&quot; -- \&quot;*\&quot; Menu : manages\n\n&#39; Menu contains MenuItems\nMenu \&quot;1\&quot; -- \&quot;*\&quot; MenuItem : contains\n\n&#39; Order relationships\nCustomer \&quot;1\&quot; -- \&quot;*\&quot; \&quot;Order\&quot; : places\n\&quot;Order\&quot; \&quot;1\&quot; -- \&quot;1\&quot; Payment : has\nPayment \&quot;1\&quot; -- \&quot;1\&quot; PaymentMethod : uses\n\n&#39; CustomerProfile\nCustomer \&quot;1\&quot; -- \&quot;1\&quot; CustomerProfile : has\n\n&#39; Notification\nCustomer \&quot;1\&quot; -- \&quot;*\&quot; Notification : receives\nNotificationType \&quot;1\&quot; -- \&quot;*\&quot; Notification : has\n\n&#39; Review\nCustomer \&quot;1\&quot; -- \&quot;*\&quot; Review : writes\nRestaurant \&quot;1\&quot; -- \&quot;*\&quot; Review : has\n\n&#39; MenuItem and Ingredient many-to-many relationship\nMenuItem \&quot;*\&quot; -- \&quot;*\&quot; Ingredient : through MenuItemIngredient\n\n&#39; OrderItem\n\&quot;Order\&quot; \&quot;1\&quot; -- \&quot;*\&quot; OrderItem : contains\nOrderItem \&quot;1\&quot; -- \&quot;1\&quot; MenuItem : belongs to\n\n&#39; CouponUsage\nCoupon \&quot;1\&quot; -- \&quot;*\&quot; CouponUsage : used in\n\&quot;Order\&quot; \&quot;1\&quot; -- \&quot;*\&quot; CouponUsage : has\n\n&#39; RestaurantBranch\nStaff \&quot;1\&quot; -- \&quot;*\&quot; RestaurantBranch : works at\n\n&#39; SystemLog\nSystemLog \&quot;1\&quot; -- \&quot;*\&quot; \&quot;Order\&quot; : logs\nSystemLog \&quot;1\&quot; -- \&quot;*\&quot; Payment : logs\n\n&#39; Recommendation\nCustomer \&quot;1\&quot; -- \&quot;*\&quot; Recommendation : receives\nMenuItem \&quot;1\&quot; -- \&quot;*\&quot; Recommendation : recommended\nRecommendation \&quot;1\&quot; -- \&quot;1\&quot; RecommendationModel : uses\n\n&#39; Role and Permission\nRole \&quot;*\&quot; -- \&quot;*\&quot; Permission : has\nUser \&quot;1\&quot; -- \&quot;1\&quot; Role : has\n@enduml&quot;,&#xa;  &quot;format&quot;: &quot;svg&quot;&#xa;}" id="mii4QRStWCLoaJkA7U1h-10">
          <mxCell style="shape=image;noLabel=1;verticalAlign=top;aspect=fixed;imageAspect=0;image=data:image/svg+xml,PD94bWwgdmVyc2lvbj0iMS4wIiBlbmNvZGluZz0idXMtYXNjaWkiIHN0YW5kYWxvbmU9Im5vIj8+PHN2ZyB4bWxucz0iaHR0cDovL3d3dy53My5vcmcvMjAwMC9zdmciIHhtbG5zOnhsaW5rPSJodHRwOi8vd3d3LnczLm9yZy8xOTk5L3hsaW5rIiBjb250ZW50U3R5bGVUeXBlPSJ0ZXh0L2NzcyIgaGVpZ2h0PSIxNDQ3cHgiIHByZXNlcnZlQXNwZWN0UmF0aW89Im5vbmUiIHN0eWxlPSJ3aWR0aDoxNzQwcHg7aGVpZ2h0OjE0NDdweDtiYWNrZ3JvdW5kOiNGRkZGRkY7IiB2ZXJzaW9uPSIxLjEiIHZpZXdCb3g9IjAgMCAxNzQwIDE0NDciIHdpZHRoPSIxNzQwcHgiIHpvb21BbmRQYW49Im1hZ25pZnkiPjxkZWZzLz48Zz48IS0tY2xhc3MgVXNlci0tPjxnIGlkPSJlbGVtX1VzZXIiPjxyZWN0IGNvZGVMaW5lPSIyIiBmaWxsPSIjRjFGMUYxIiBoZWlnaHQ9IjEyMi45MjE5IiBpZD0iVXNlciIgcng9IjIuNSIgcnk9IjIuNSIgc3R5bGU9InN0cm9rZTojMTgxODE4O3N0cm9rZS13aWR0aDowLjU7IiB3aWR0aD0iMTY3IiB4PSI3MjYuNSIgeT0iNyIvPjxlbGxpcHNlIGN4PSI3OTEuNzUiIGN5PSIyMyIgZmlsbD0iI0FERDFCMiIgcng9IjExIiByeT0iMTEiIHN0eWxlPSJzdHJva2U6IzE4MTgxODtzdHJva2Utd2lkdGg6MS4wOyIvPjxwYXRoIGQ9Ik03OTUuMzc1LDI5IEw3OTUuMzc1LDI3LjI1IEw3OTAuMDYyNSwyNy4yNSBRNzkwLjA2MjUsMjcuMjUgNzkwLjA2MjUsMjMuNjg3NSBMNzk0LjMxMjUsMjMuNjg3NSBMNzk0LjMxMjUsMjEuOTM3NSBMNzkwLjA2MjUsMjEuOTM3NSBMNzkwLjA2MjUsMTkuNDM3NSBMNzk1LjM3NSwxOS40Mzc1IEw3OTUuMzc1LDE3LjY4NzUgTDc4OC4zMTI1LDE3LjY4NzUgUTc4OC4zMTI1LDE3LjY4NzUgNzg4LjMxMjUsMjkgTDc5NS4zNzUsMjkgWiAiIGZpbGw9IiMwMDAwMDAiLz48dGV4dCBmaWxsPSIjMDAwMDAwIiBmb250LWZhbWlseT0ic2Fucy1zZXJpZiIgZm9udC1zaXplPSIxNCIgbGVuZ3RoQWRqdXN0PSJzcGFjaW5nIiB0ZXh0TGVuZ3RoPSIyOCIgeD0iODEyLjI1IiB5PSIyOC43NDIyIj5Vc2VyPC90ZXh0PjxsaW5lIHN0eWxlPSJzdHJva2U6IzE4MTgxODtzdHJva2Utd2lkdGg6MC41OyIgeDE9IjcyNy41IiB4Mj0iODkyLjUiIHkxPSIzOSIgeTI9IjM5Ii8+PHRleHQgZmlsbD0iIzAwMDAwMCIgZm9udC1mYW1pbHk9InNhbnMtc2VyaWYiIGZvbnQtc2l6ZT0iMTQiIGxlbmd0aEFkanVzdD0ic3BhY2luZyIgdGV4dExlbmd0aD0iOTEiIHg9IjczMi41IiB5PSI1Ni4yMzQ0Ij51c2VySWQgaW50IFBLPC90ZXh0Pjx0ZXh0IGZpbGw9IiMwMDAwMDAiIGZvbnQtZmFtaWx5PSJzYW5zLXNlcmlmIiBmb250LXNpemU9IjE0IiBsZW5ndGhBZGp1c3Q9InNwYWNpbmciIHRleHRMZW5ndGg9IjE1NSIgeD0iNzMyLjUiIHk9IjcxLjIxODgiPnVzZXJuYW1lIFN0cmluZyBVTklRVUU8L3RleHQ+PHRleHQgZmlsbD0iIzAwMDAwMCIgZm9udC1mYW1pbHk9InNhbnMtc2VyaWYiIGZvbnQtc2l6ZT0iMTQiIGxlbmd0aEFkanVzdD0ic3BhY2luZyIgdGV4dExlbmd0aD0iMTA2IiB4PSI3MzIuNSIgeT0iODYuMjAzMSI+cGFzc3dvcmQgU3RyaW5nPC90ZXh0Pjx0ZXh0IGZpbGw9IiMwMDAwMDAiIGZvbnQtZmFtaWx5PSJzYW5zLXNlcmlmIiBmb250LXNpemU9IjE0IiBsZW5ndGhBZGp1c3Q9InNwYWNpbmciIHRleHRMZW5ndGg9IjEzNCIgeD0iNzMyLjUiIHk9IjEwMS4xODc1Ij5lbWFpbCBTdHJpbmcgVU5JUVVFPC90ZXh0Pjx0ZXh0IGZpbGw9IiMwMDAwMDAiIGZvbnQtZmFtaWx5PSJzYW5zLXNlcmlmIiBmb250LXNpemU9IjE0IiBsZW5ndGhBZGp1c3Q9InNwYWNpbmciIHRleHRMZW5ndGg9Ijc4IiB4PSI3MzIuNSIgeT0iMTE2LjE3MTkiPm5hbWUgU3RyaW5nPC90ZXh0PjxsaW5lIHN0eWxlPSJzdHJva2U6IzE4MTgxODtzdHJva2Utd2lkdGg6MC41OyIgeDE9IjcyNy41IiB4Mj0iODkyLjUiIHkxPSIxMjEuOTIxOSIgeTI9IjEyMS45MjE5Ii8+PC9nPjwhLS1jbGFzcyBDdXN0b21lci0tPjxnIGlkPSJlbGVtX0N1c3RvbWVyIj48cmVjdCBjb2RlTGluZT0iMTEiIGZpbGw9IiNGMUYxRjEiIGhlaWdodD0iMTA3LjkzNzUiIGlkPSJDdXN0b21lciIgcng9IjIuNSIgcnk9IjIuNSIgc3R5bGU9InN0cm9rZTojMTgxODE4O3N0cm9rZS13aWR0aDowLjU7IiB3aWR0aD0iMTM5IiB4PSI1NzAuNSIgeT0iMjA1Ii8+PGVsbGlwc2UgY3g9IjYwOCIgY3k9IjIyMSIgZmlsbD0iI0FERDFCMiIgcng9IjExIiByeT0iMTEiIHN0eWxlPSJzdHJva2U6IzE4MTgxODtzdHJva2Utd2lkdGg6MS4wOyIvPjxwYXRoIGQ9Ik02MTEuNjI1LDIyNyBMNjExLjYyNSwyMjUuMjUgTDYwNi4zMTI1LDIyNS4yNSBRNjA2LjMxMjUsMjI1LjI1IDYwNi4zMTI1LDIyMS42ODc1IEw2MTAuNTYyNSwyMjEuNjg3NSBMNjEwLjU2MjUsMjE5LjkzNzUgTDYwNi4zMTI1LDIxOS45Mzc1IEw2MDYuMzEyNSwyMTcuNDM3NSBMNjExLjYyNSwyMTcuNDM3NSBMNjExLjYyNSwyMTUuNjg3NSBMNjA0LjU2MjUsMjE1LjY4NzUgUTYwNC41NjI1LDIxNS42ODc1IDYwNC41NjI1LDIyNyBMNjExLjYyNSwyMjcgWiAiIGZpbGw9IiMwMDAwMDAiLz48dGV4dCBmaWxsPSIjMDAwMDAwIiBmb250LWZhbWlseT0ic2Fucy1zZXJpZiIgZm9udC1zaXplPSIxNCIgbGVuZ3RoQWRqdXN0PSJzcGFjaW5nIiB0ZXh0TGVuZ3RoPSI1NyIgeD0iNjI3IiB5PSIyMjYuNzQyMiI+Q3VzdG9tZXI8L3RleHQ+PGxpbmUgc3R5bGU9InN0cm9rZTojMTgxODE4O3N0cm9rZS13aWR0aDowLjU7IiB4MT0iNTcxLjUiIHgyPSI3MDguNSIgeTE9IjIzNyIgeTI9IjIzNyIvPjx0ZXh0IGZpbGw9IiMwMDAwMDAiIGZvbnQtZmFtaWx5PSJzYW5zLXNlcmlmIiBmb250LXNpemU9IjE0IiBsZW5ndGhBZGp1c3Q9InNwYWNpbmciIHRleHRMZW5ndGg9IjEyMCIgeD0iNTc2LjUiIHk9IjI1NC4yMzQ0Ij5jdXN0b21lcklkIGludCBQSzwvdGV4dD48dGV4dCBmaWxsPSIjMDAwMDAwIiBmb250LWZhbWlseT0ic2Fucy1zZXJpZiIgZm9udC1zaXplPSIxNCIgbGVuZ3RoQWRqdXN0PSJzcGFjaW5nIiB0ZXh0TGVuZ3RoPSI5OCIgeD0iNTc2LjUiIHk9IjI2OS4yMTg4Ij5hZGRyZXNzIFN0cmluZzwvdGV4dD48dGV4dCBmaWxsPSIjMDAwMDAwIiBmb250LWZhbWlseT0ic2Fucy1zZXJpZiIgZm9udC1zaXplPSIxNCIgbGVuZ3RoQWRqdXN0PSJzcGFjaW5nIiB0ZXh0TGVuZ3RoPSIxMjciIHg9IjU3Ni41IiB5PSIyODQuMjAzMSI+cGhvbmVOdW1iZXIgU3RyaW5nPC90ZXh0Pjx0ZXh0IGZpbGw9IiMwMDAwMDAiIGZvbnQtZmFtaWx5PSJzYW5zLXNlcmlmIiBmb250LXNpemU9IjE0IiBsZW5ndGhBZGp1c3Q9InNwYWNpbmciIHRleHRMZW5ndGg9IjkxIiB4PSI1NzYuNSIgeT0iMjk5LjE4NzUiPnVzZXJJZCBpbnQgRks8L3RleHQ+PGxpbmUgc3R5bGU9InN0cm9rZTojMTgxODE4O3N0cm9rZS13aWR0aDowLjU7IiB4MT0iNTcxLjUiIHgyPSI3MDguNSIgeTE9IjMwNC45Mzc1IiB5Mj0iMzA0LjkzNzUiLz48L2c+PCEtLWNsYXNzIEFkbWluLS0+PGcgaWQ9ImVsZW1fQWRtaW4iPjxyZWN0IGNvZGVMaW5lPSIxOSIgZmlsbD0iI0YxRjFGMSIgaGVpZ2h0PSI3Ny45Njg4IiBpZD0iQWRtaW4iIHJ4PSIyLjUiIHJ5PSIyLjUiIHN0eWxlPSJzdHJva2U6IzE4MTgxODtzdHJva2Utd2lkdGg6MC41OyIgd2lkdGg9IjExMSIgeD0iNDI0LjUiIHk9IjIyMCIvPjxlbGxpcHNlIGN4PSI0NTguODUiIGN5PSIyMzYiIGZpbGw9IiNBREQxQjIiIHJ4PSIxMSIgcnk9IjExIiBzdHlsZT0ic3Ryb2tlOiMxODE4MTg7c3Ryb2tlLXdpZHRoOjEuMDsiLz48cGF0aCBkPSJNNDYyLjQ3NSwyNDIgTDQ2Mi40NzUsMjQwLjI1IEw0NTcuMTYyNSwyNDAuMjUgUTQ1Ny4xNjI1LDI0MC4yNSA0NTcuMTYyNSwyMzYuNjg3NSBMNDYxLjQxMjUsMjM2LjY4NzUgTDQ2MS40MTI1LDIzNC45Mzc1IEw0NTcuMTYyNSwyMzQuOTM3NSBMNDU3LjE2MjUsMjMyLjQzNzUgTDQ2Mi40NzUsMjMyLjQzNzUgTDQ2Mi40NzUsMjMwLjY4NzUgTDQ1NS40MTI1LDIzMC42ODc1IFE0NTUuNDEyNSwyMzAuNjg3NSA0NTUuNDEyNSwyNDIgTDQ2Mi40NzUsMjQyIFogIiBmaWxsPSIjMDAwMDAwIi8+PHRleHQgZmlsbD0iIzAwMDAwMCIgZm9udC1mYW1pbHk9InNhbnMtc2VyaWYiIGZvbnQtc2l6ZT0iMTQiIGxlbmd0aEFkanVzdD0ic3BhY2luZyIgdGV4dExlbmd0aD0iMzYiIHg9IjQ3Ny4xNSIgeT0iMjQxLjc0MjIiPkFkbWluPC90ZXh0PjxsaW5lIHN0eWxlPSJzdHJva2U6IzE4MTgxODtzdHJva2Utd2lkdGg6MC41OyIgeDE9IjQyNS41IiB4Mj0iNTM0LjUiIHkxPSIyNTIiIHkyPSIyNTIiLz48dGV4dCBmaWxsPSIjMDAwMDAwIiBmb250LWZhbWlseT0ic2Fucy1zZXJpZiIgZm9udC1zaXplPSIxNCIgbGVuZ3RoQWRqdXN0PSJzcGFjaW5nIiB0ZXh0TGVuZ3RoPSI5OSIgeD0iNDMwLjUiIHk9IjI2OS4yMzQ0Ij5hZG1pbklkIGludCBQSzwvdGV4dD48dGV4dCBmaWxsPSIjMDAwMDAwIiBmb250LWZhbWlseT0ic2Fucy1zZXJpZiIgZm9udC1zaXplPSIxNCIgbGVuZ3RoQWRqdXN0PSJzcGFjaW5nIiB0ZXh0TGVuZ3RoPSI5MSIgeD0iNDMwLjUiIHk9IjI4NC4yMTg4Ij51c2VySWQgaW50IEZLPC90ZXh0PjxsaW5lIHN0eWxlPSJzdHJva2U6IzE4MTgxODtzdHJva2Utd2lkdGg6MC41OyIgeDE9IjQyNS41IiB4Mj0iNTM0LjUiIHkxPSIyODkuOTY4OCIgeTI9IjI4OS45Njg4Ii8+PC9nPjwhLS1jbGFzcyBTdGFmZi0tPjxnIGlkPSJlbGVtX1N0YWZmIj48cmVjdCBjb2RlTGluZT0iMjUiIGZpbGw9IiNGMUYxRjEiIGhlaWdodD0iNzcuOTY4OCIgaWQ9IlN0YWZmIiByeD0iMi41IiByeT0iMi41IiBzdHlsZT0ic3Ryb2tlOiMxODE4MTg7c3Ryb2tlLXdpZHRoOjAuNTsiIHdpZHRoPSIxMTAiIHg9IjEyODUiIHk9IjIyMCIvPjxlbGxpcHNlIGN4PSIxMzE5LjM1IiBjeT0iMjM2IiBmaWxsPSIjQUREMUIyIiByeD0iMTEiIHJ5PSIxMSIgc3R5bGU9InN0cm9rZTojMTgxODE4O3N0cm9rZS13aWR0aDoxLjA7Ii8+PHBhdGggZD0iTTEzMjIuOTc1LDI0MiBMMTMyMi45NzUsMjQwLjI1IEwxMzE3LjY2MjUsMjQwLjI1IFExMzE3LjY2MjUsMjQwLjI1IDEzMTcuNjYyNSwyMzYuNjg3NSBMMTMyMS45MTI1LDIzNi42ODc1IEwxMzIxLjkxMjUsMjM0LjkzNzUgTDEzMTcuNjYyNSwyMzQuOTM3NSBMMTMxNy42NjI1LDIzMi40Mzc1IEwxMzIyLjk3NSwyMzIuNDM3NSBMMTMyMi45NzUsMjMwLjY4NzUgTDEzMTUuOTEyNSwyMzAuNjg3NSBRMTMxNS45MTI1LDIzMC42ODc1IDEzMTUuOTEyNSwyNDIgTDEzMjIuOTc1LDI0MiBaICIgZmlsbD0iIzAwMDAwMCIvPjx0ZXh0IGZpbGw9IiMwMDAwMDAiIGZvbnQtZmFtaWx5PSJzYW5zLXNlcmlmIiBmb250LXNpemU9IjE0IiBsZW5ndGhBZGp1c3Q9InNwYWNpbmciIHRleHRMZW5ndGg9IjM1IiB4PSIxMzM3LjY1IiB5PSIyNDEuNzQyMiI+U3RhZmY8L3RleHQ+PGxpbmUgc3R5bGU9InN0cm9rZTojMTgxODE4O3N0cm9rZS13aWR0aDowLjU7IiB4MT0iMTI4NiIgeDI9IjEzOTQiIHkxPSIyNTIiIHkyPSIyNTIiLz48dGV4dCBmaWxsPSIjMDAwMDAwIiBmb250LWZhbWlseT0ic2Fucy1zZXJpZiIgZm9udC1zaXplPSIxNCIgbGVuZ3RoQWRqdXN0PSJzcGFjaW5nIiB0ZXh0TGVuZ3RoPSI5OCIgeD0iMTI5MSIgeT0iMjY5LjIzNDQiPnN0YWZmSWQgaW50IFBLPC90ZXh0Pjx0ZXh0IGZpbGw9IiMwMDAwMDAiIGZvbnQtZmFtaWx5PSJzYW5zLXNlcmlmIiBmb250LXNpemU9IjE0IiBsZW5ndGhBZGp1c3Q9InNwYWNpbmciIHRleHRMZW5ndGg9IjkxIiB4PSIxMjkxIiB5PSIyODQuMjE4OCI+dXNlcklkIGludCBGSzwvdGV4dD48bGluZSBzdHlsZT0ic3Ryb2tlOiMxODE4MTg7c3Ryb2tlLXdpZHRoOjAuNTsiIHgxPSIxMjg2IiB4Mj0iMTM5NCIgeTE9IjI4OS45Njg4IiB5Mj0iMjg5Ljk2ODgiLz48L2c+PCEtLWNsYXNzIFJlc3RhdXJhbnQtLT48ZyBpZD0iZWxlbV9SZXN0YXVyYW50Ij48cmVjdCBjb2RlTGluZT0iMzEiIGZpbGw9IiNGMUYxRjEiIGhlaWdodD0iNzcuOTY4OCIgaWQ9IlJlc3RhdXJhbnQiIHJ4PSIyLjUiIHJ5PSIyLjUiIHN0eWxlPSJzdHJva2U6IzE4MTgxODtzdHJva2Utd2lkdGg6MC41OyIgd2lkdGg9IjE0NSIgeD0iMTI5LjUiIHk9IjIyMCIvPjxlbGxpcHNlIGN4PSIxNjMuODUiIGN5PSIyMzYiIGZpbGw9IiNBREQxQjIiIHJ4PSIxMSIgcnk9IjExIiBzdHlsZT0ic3Ryb2tlOiMxODE4MTg7c3Ryb2tlLXdpZHRoOjEuMDsiLz48cGF0aCBkPSJNMTY3LjQ3NSwyNDIgTDE2Ny40NzUsMjQwLjI1IEwxNjIuMTYyNSwyNDAuMjUgUTE2Mi4xNjI1LDI0MC4yNSAxNjIuMTYyNSwyMzYuNjg3NSBMMTY2LjQxMjUsMjM2LjY4NzUgTDE2Ni40MTI1LDIzNC45Mzc1IEwxNjIuMTYyNSwyMzQuOTM3NSBMMTYyLjE2MjUsMjMyLjQzNzUgTDE2Ny40NzUsMjMyLjQzNzUgTDE2Ny40NzUsMjMwLjY4NzUgTDE2MC40MTI1LDIzMC42ODc1IFExNjAuNDEyNSwyMzAuNjg3NSAxNjAuNDEyNSwyNDIgTDE2Ny40NzUsMjQyIFogIiBmaWxsPSIjMDAwMDAwIi8+PHRleHQgZmlsbD0iIzAwMDAwMCIgZm9udC1mYW1pbHk9InNhbnMtc2VyaWYiIGZvbnQtc2l6ZT0iMTQiIGxlbmd0aEFkanVzdD0ic3BhY2luZyIgdGV4dExlbmd0aD0iNzAiIHg9IjE4Mi4xNSIgeT0iMjQxLjc0MjIiPlJlc3RhdXJhbnQ8L3RleHQ+PGxpbmUgc3R5bGU9InN0cm9rZTojMTgxODE4O3N0cm9rZS13aWR0aDowLjU7IiB4MT0iMTMwLjUiIHgyPSIyNzMuNSIgeTE9IjI1MiIgeTI9IjI1MiIvPjx0ZXh0IGZpbGw9IiMwMDAwMDAiIGZvbnQtZmFtaWx5PSJzYW5zLXNlcmlmIiBmb250LXNpemU9IjE0IiBsZW5ndGhBZGp1c3Q9InNwYWNpbmciIHRleHRMZW5ndGg9IjEzMyIgeD0iMTM1LjUiIHk9IjI2OS4yMzQ0Ij5yZXN0YXVyYW50SWQgaW50IFBLPC90ZXh0Pjx0ZXh0IGZpbGw9IiMwMDAwMDAiIGZvbnQtZmFtaWx5PSJzYW5zLXNlcmlmIiBmb250LXNpemU9IjE0IiBsZW5ndGhBZGp1c3Q9InNwYWNpbmciIHRleHRMZW5ndGg9IjEyNiIgeD0iMTM1LjUiIHk9IjI4NC4yMTg4Ij5jb250YWN0SW5mbyBTdHJpbmc8L3RleHQ+PGxpbmUgc3R5bGU9InN0cm9rZTojMTgxODE4O3N0cm9rZS13aWR0aDowLjU7IiB4MT0iMTMwLjUiIHgyPSIyNzMuNSIgeTE9IjI4OS45Njg4IiB5Mj0iMjg5Ljk2ODgiLz48L2c+PCEtLWNsYXNzIE1lbnUtLT48ZyBpZD0iZWxlbV9NZW51Ij48cmVjdCBjb2RlTGluZT0iMzciIGZpbGw9IiNGMUYxRjEiIGhlaWdodD0iOTIuOTUzMSIgaWQ9Ik1lbnUiIHJ4PSIyLjUiIHJ5PSIyLjUiIHN0eWxlPSJzdHJva2U6IzE4MTgxODtzdHJva2Utd2lkdGg6MC41OyIgd2lkdGg9IjE0NSIgeD0iOTQuNSIgeT0iNTU2Ii8+PGVsbGlwc2UgY3g9IjE0OC43NSIgY3k9IjU3MiIgZmlsbD0iI0FERDFCMiIgcng9IjExIiByeT0iMTEiIHN0eWxlPSJzdHJva2U6IzE4MTgxODtzdHJva2Utd2lkdGg6MS4wOyIvPjxwYXRoIGQ9Ik0xNTIuMzc1LDU3OCBMMTUyLjM3NSw1NzYuMjUgTDE0Ny4wNjI1LDU3Ni4yNSBRMTQ3LjA2MjUsNTc2LjI1IDE0Ny4wNjI1LDU3Mi42ODc1IEwxNTEuMzEyNSw1NzIuNjg3NSBMMTUxLjMxMjUsNTcwLjkzNzUgTDE0Ny4wNjI1LDU3MC45Mzc1IEwxNDcuMDYyNSw1NjguNDM3NSBMMTUyLjM3NSw1NjguNDM3NSBMMTUyLjM3NSw1NjYuNjg3NSBMMTQ1LjMxMjUsNTY2LjY4NzUgUTE0NS4zMTI1LDU2Ni42ODc1IDE0NS4zMTI1LDU3OCBMMTUyLjM3NSw1NzggWiAiIGZpbGw9IiMwMDAwMDAiLz48dGV4dCBmaWxsPSIjMDAwMDAwIiBmb250LWZhbWlseT0ic2Fucy1zZXJpZiIgZm9udC1zaXplPSIxNCIgbGVuZ3RoQWRqdXN0PSJzcGFjaW5nIiB0ZXh0TGVuZ3RoPSIyOCIgeD0iMTY5LjI1IiB5PSI1NzcuNzQyMiI+TWVudTwvdGV4dD48bGluZSBzdHlsZT0ic3Ryb2tlOiMxODE4MTg7c3Ryb2tlLXdpZHRoOjAuNTsiIHgxPSI5NS41IiB4Mj0iMjM4LjUiIHkxPSI1ODgiIHkyPSI1ODgiLz48dGV4dCBmaWxsPSIjMDAwMDAwIiBmb250LWZhbWlseT0ic2Fucy1zZXJpZiIgZm9udC1zaXplPSIxNCIgbGVuZ3RoQWRqdXN0PSJzcGFjaW5nIiB0ZXh0TGVuZ3RoPSI5MiIgeD0iMTAwLjUiIHk9IjYwNS4yMzQ0Ij5tZW51SWQgaW50IFBLPC90ZXh0Pjx0ZXh0IGZpbGw9IiMwMDAwMDAiIGZvbnQtZmFtaWx5PSJzYW5zLXNlcmlmIiBmb250LXNpemU9IjE0IiBsZW5ndGhBZGp1c3Q9InNwYWNpbmciIHRleHRMZW5ndGg9IjEzMyIgeD0iMTAwLjUiIHk9IjYyMC4yMTg4Ij5yZXN0YXVyYW50SWQgaW50IEZLPC90ZXh0Pjx0ZXh0IGZpbGw9IiMwMDAwMDAiIGZvbnQtZmFtaWx5PSJzYW5zLXNlcmlmIiBmb250LXNpemU9IjE0IiBsZW5ndGhBZGp1c3Q9InNwYWNpbmciIHRleHRMZW5ndGg9IjEyNiIgeD0iMTAwLjUiIHk9IjYzNS4yMDMxIj5kZXNjcmlwdGlvbiBTdHJpbmc8L3RleHQ+PGxpbmUgc3R5bGU9InN0cm9rZTojMTgxODE4O3N0cm9rZS13aWR0aDowLjU7IiB4MT0iOTUuNSIgeDI9IjIzOC41IiB5MT0iNjQwLjk1MzEiIHkyPSI2NDAuOTUzMSIvPjwvZz48IS0tY2xhc3MgTWVudUl0ZW0tLT48ZyBpZD0iZWxlbV9NZW51SXRlbSI+PHJlY3QgY29kZUxpbmU9IjQ0IiBmaWxsPSIjRjFGMUYxIiBoZWlnaHQ9IjE5Ny44NDM4IiBpZD0iTWVudUl0ZW0iIHJ4PSIyLjUiIHJ5PSIyLjUiIHN0eWxlPSJzdHJva2U6IzE4MTgxODtzdHJva2Utd2lkdGg6MC41OyIgd2lkdGg9IjE2NiIgeD0iMTcxIiB5PSI4NjIiLz48ZWxsaXBzZSBjeD0iMjIxLjI1IiBjeT0iODc4IiBmaWxsPSIjQUREMUIyIiByeD0iMTEiIHJ5PSIxMSIgc3R5bGU9InN0cm9rZTojMTgxODE4O3N0cm9rZS13aWR0aDoxLjA7Ii8+PHBhdGggZD0iTTIyNC44NzUsODg0IEwyMjQuODc1LDg4Mi4yNSBMMjE5LjU2MjUsODgyLjI1IFEyMTkuNTYyNSw4ODIuMjUgMjE5LjU2MjUsODc4LjY4NzUgTDIyMy44MTI1LDg3OC42ODc1IEwyMjMuODEyNSw4NzYuOTM3NSBMMjE5LjU2MjUsODc2LjkzNzUgTDIxOS41NjI1LDg3NC40Mzc1IEwyMjQuODc1LDg3NC40Mzc1IEwyMjQuODc1LDg3Mi42ODc1IEwyMTcuODEyNSw4NzIuNjg3NSBRMjE3LjgxMjUsODcyLjY4NzUgMjE3LjgxMjUsODg0IEwyMjQuODc1LDg4NCBaICIgZmlsbD0iIzAwMDAwMCIvPjx0ZXh0IGZpbGw9IiMwMDAwMDAiIGZvbnQtZmFtaWx5PSJzYW5zLXNlcmlmIiBmb250LXNpemU9IjE0IiBsZW5ndGhBZGp1c3Q9InNwYWNpbmciIHRleHRMZW5ndGg9IjU3IiB4PSIyNDEuNzUiIHk9Ijg4My43NDIyIj5NZW51SXRlbTwvdGV4dD48bGluZSBzdHlsZT0ic3Ryb2tlOiMxODE4MTg7c3Ryb2tlLXdpZHRoOjAuNTsiIHgxPSIxNzIiIHgyPSIzMzYiIHkxPSI4OTQiIHkyPSI4OTQiLz48dGV4dCBmaWxsPSIjMDAwMDAwIiBmb250LWZhbWlseT0ic2Fucy1zZXJpZiIgZm9udC1zaXplPSIxNCIgbGVuZ3RoQWRqdXN0PSJzcGFjaW5nIiB0ZXh0TGVuZ3RoPSIxMjEiIHg9IjE3NyIgeT0iOTExLjIzNDQiPm1lbnVJdGVtSWQgaW50IFBLPC90ZXh0Pjx0ZXh0IGZpbGw9IiMwMDAwMDAiIGZvbnQtZmFtaWx5PSJzYW5zLXNlcmlmIiBmb250LXNpemU9IjE0IiBsZW5ndGhBZGp1c3Q9InNwYWNpbmciIHRleHRMZW5ndGg9IjkyIiB4PSIxNzciIHk9IjkyNi4yMTg4Ij5tZW51SWQgaW50IEZLPC90ZXh0Pjx0ZXh0IGZpbGw9IiMwMDAwMDAiIGZvbnQtZmFtaWx5PSJzYW5zLXNlcmlmIiBmb250LXNpemU9IjE0IiBsZW5ndGhBZGp1c3Q9InNwYWNpbmciIHRleHRMZW5ndGg9Ijc4IiB4PSIxNzciIHk9Ijk0MS4yMDMxIj5uYW1lIFN0cmluZzwvdGV4dD48dGV4dCBmaWxsPSIjMDAwMDAwIiBmb250LWZhbWlseT0ic2Fucy1zZXJpZiIgZm9udC1zaXplPSIxNCIgbGVuZ3RoQWRqdXN0PSJzcGFjaW5nIiB0ZXh0TGVuZ3RoPSIxMjYiIHg9IjE3NyIgeT0iOTU2LjE4NzUiPmRlc2NyaXB0aW9uIFN0cmluZzwvdGV4dD48dGV4dCBmaWxsPSIjMDAwMDAwIiBmb250LWZhbWlseT0ic2Fucy1zZXJpZiIgZm9udC1zaXplPSIxNCIgbGVuZ3RoQWRqdXN0PSJzcGFjaW5nIiB0ZXh0TGVuZ3RoPSI5MiIgeD0iMTc3IiB5PSI5NzEuMTcxOSI+cHJpY2UgZGVjaW1hbDwvdGV4dD48dGV4dCBmaWxsPSIjMDAwMDAwIiBmb250LWZhbWlseT0ic2Fucy1zZXJpZiIgZm9udC1zaXplPSIxNCIgbGVuZ3RoQWRqdXN0PSJzcGFjaW5nIiB0ZXh0TGVuZ3RoPSI4NCIgeD0iMTc3IiB5PSI5ODYuMTU2MyI+Y2Fsb3JpZXMgaW50PC90ZXh0Pjx0ZXh0IGZpbGw9IiMwMDAwMDAiIGZvbnQtZmFtaWx5PSJzYW5zLXNlcmlmIiBmb250LXNpemU9IjE0IiBsZW5ndGhBZGp1c3Q9InNwYWNpbmciIHRleHRMZW5ndGg9Ijc3IiB4PSIxNzciIHk9IjEwMDEuMTQwNiI+cHJvdGVpbiBpbnQ8L3RleHQ+PHRleHQgZmlsbD0iIzAwMDAwMCIgZm9udC1mYW1pbHk9InNhbnMtc2VyaWYiIGZvbnQtc2l6ZT0iMTQiIGxlbmd0aEFkanVzdD0ic3BhY2luZyIgdGV4dExlbmd0aD0iMTEyIiB4PSIxNzciIHk9IjEwMTYuMTI1Ij5jYXJib2h5ZHJhdGUgaW50PC90ZXh0Pjx0ZXh0IGZpbGw9IiMwMDAwMDAiIGZvbnQtZmFtaWx5PSJzYW5zLXNlcmlmIiBmb250LXNpemU9IjE0IiBsZW5ndGhBZGp1c3Q9InNwYWNpbmciIHRleHRMZW5ndGg9IjE1NCIgeD0iMTc3IiB5PSIxMDMxLjEwOTQiPnNlbnNpdGl2ZVNvdXJjZSBTdHJpbmc8L3RleHQ+PHRleHQgZmlsbD0iIzAwMDAwMCIgZm9udC1mYW1pbHk9InNhbnMtc2VyaWYiIGZvbnQtc2l6ZT0iMTQiIGxlbmd0aEFkanVzdD0ic3BhY2luZyIgdGV4dExlbmd0aD0iMTA1IiB4PSIxNzciIHk9IjEwNDYuMDkzOCI+Y2F0ZWdvcnkgU3RyaW5nPC90ZXh0PjxsaW5lIHN0eWxlPSJzdHJva2U6IzE4MTgxODtzdHJva2Utd2lkdGg6MC41OyIgeDE9IjE3MiIgeDI9IjMzNiIgeTE9IjEwNTEuODQzOCIgeTI9IjEwNTEuODQzOCIvPjwvZz48IS0tY2xhc3MgT3JkZXItLT48ZyBpZD0iZWxlbV9PcmRlciI+PHJlY3QgY29kZUxpbmU9IjU4IiBmaWxsPSIjRjFGMUYxIiBoZWlnaHQ9IjEzNy45MDYzIiBpZD0iT3JkZXIiIHJ4PSIyLjUiIHJ5PSIyLjUiIHN0eWxlPSJzdHJva2U6IzE4MTgxODtzdHJva2Utd2lkdGg6MC41OyIgd2lkdGg9IjE1MyIgeD0iODUyLjUiIHk9IjM4OCIvPjxlbGxpcHNlIGN4PSI5MDcuMjUiIGN5PSI0MDQiIGZpbGw9IiNBREQxQjIiIHJ4PSIxMSIgcnk9IjExIiBzdHlsZT0ic3Ryb2tlOiMxODE4MTg7c3Ryb2tlLXdpZHRoOjEuMDsiLz48cGF0aCBkPSJNOTEwLjg3NSw0MTAgTDkxMC44NzUsNDA4LjI1IEw5MDUuNTYyNSw0MDguMjUgUTkwNS41NjI1LDQwOC4yNSA5MDUuNTYyNSw0MDQuNjg3NSBMOTA5LjgxMjUsNDA0LjY4NzUgTDkwOS44MTI1LDQwMi45Mzc1IEw5MDUuNTYyNSw0MDIuOTM3NSBMOTA1LjU2MjUsNDAwLjQzNzUgTDkxMC44NzUsNDAwLjQzNzUgTDkxMC44NzUsMzk4LjY4NzUgTDkwMy44MTI1LDM5OC42ODc1IFE5MDMuODEyNSwzOTguNjg3NSA5MDMuODEyNSw0MTAgTDkxMC44NzUsNDEwIFogIiBmaWxsPSIjMDAwMDAwIi8+PHRleHQgZmlsbD0iIzAwMDAwMCIgZm9udC1mYW1pbHk9InNhbnMtc2VyaWYiIGZvbnQtc2l6ZT0iMTQiIGxlbmd0aEFkanVzdD0ic3BhY2luZyIgdGV4dExlbmd0aD0iMzUiIHg9IjkyNy43NSIgeT0iNDA5Ljc0MjIiPk9yZGVyPC90ZXh0PjxsaW5lIHN0eWxlPSJzdHJva2U6IzE4MTgxODtzdHJva2Utd2lkdGg6MC41OyIgeDE9Ijg1My41IiB4Mj0iMTAwNC41IiB5MT0iNDIwIiB5Mj0iNDIwIi8+PHRleHQgZmlsbD0iIzAwMDAwMCIgZm9udC1mYW1pbHk9InNhbnMtc2VyaWYiIGZvbnQtc2l6ZT0iMTQiIGxlbmd0aEFkanVzdD0ic3BhY2luZyIgdGV4dExlbmd0aD0iOTgiIHg9Ijg1OC41IiB5PSI0MzcuMjM0NCI+b3JkZXJJZCBpbnQgUEs8L3RleHQ+PHRleHQgZmlsbD0iIzAwMDAwMCIgZm9udC1mYW1pbHk9InNhbnMtc2VyaWYiIGZvbnQtc2l6ZT0iMTQiIGxlbmd0aEFkanVzdD0ic3BhY2luZyIgdGV4dExlbmd0aD0iMTIwIiB4PSI4NTguNSIgeT0iNDUyLjIxODgiPmN1c3RvbWVySWQgaW50IEZLPC90ZXh0Pjx0ZXh0IGZpbGw9IiMwMDAwMDAiIGZvbnQtZmFtaWx5PSJzYW5zLXNlcmlmIiBmb250LXNpemU9IjE0IiBsZW5ndGhBZGp1c3Q9InNwYWNpbmciIHRleHRMZW5ndGg9Ijk4IiB4PSI4NTguNSIgeT0iNDY3LjIwMzEiPm9yZGVyRGF0ZSBEYXRlPC90ZXh0Pjx0ZXh0IGZpbGw9IiMwMDAwMDAiIGZvbnQtZmFtaWx5PSJzYW5zLXNlcmlmIiBmb250LXNpemU9IjE0IiBsZW5ndGhBZGp1c3Q9InNwYWNpbmciIHRleHRMZW5ndGg9IjEyNiIgeD0iODU4LjUiIHk9IjQ4Mi4xODc1Ij5vcmRlclN0YXR1cyBTdHJpbmc8L3RleHQ+PHRleHQgZmlsbD0iIzAwMDAwMCIgZm9udC1mYW1pbHk9InNhbnMtc2VyaWYiIGZvbnQtc2l6ZT0iMTQiIGxlbmd0aEFkanVzdD0ic3BhY2luZyIgdGV4dExlbmd0aD0iMTM1IiB4PSI4NTguNSIgeT0iNDk3LjE3MTkiPnRvdGFsQW1vdW50IGRlY2ltYWw8L3RleHQ+PHRleHQgZmlsbD0iIzAwMDAwMCIgZm9udC1mYW1pbHk9InNhbnMtc2VyaWYiIGZvbnQtc2l6ZT0iMTQiIGxlbmd0aEFkanVzdD0ic3BhY2luZyIgdGV4dExlbmd0aD0iMTQxIiB4PSI4NTguNSIgeT0iNTEyLjE1NjMiPnBheW1lbnRTdGF0dXMgU3RyaW5nPC90ZXh0PjxsaW5lIHN0eWxlPSJzdHJva2U6IzE4MTgxODtzdHJva2Utd2lkdGg6MC41OyIgeDE9Ijg1My41IiB4Mj0iMTAwNC41IiB5MT0iNTE3LjkwNjMiIHkyPSI1MTcuOTA2MyIvPjwvZz48IS0tY2xhc3MgUGF5bWVudC0tPjxnIGlkPSJlbGVtX1BheW1lbnQiPjxyZWN0IGNvZGVMaW5lPSI2OCIgZmlsbD0iI0YxRjFGMSIgaGVpZ2h0PSIxMDcuOTM3NSIgaWQ9IlBheW1lbnQiIHJ4PSIyLjUiIHJ5PSIyLjUiIHN0eWxlPSJzdHJva2U6IzE4MTgxODtzdHJva2Utd2lkdGg6MC41OyIgd2lkdGg9IjE2NyIgeD0iOTE2LjUiIHk9IjY3OSIvPjxlbGxpcHNlIGN4PSI5NzAuNzUiIGN5PSI2OTUiIGZpbGw9IiNBREQxQjIiIHJ4PSIxMSIgcnk9IjExIiBzdHlsZT0ic3Ryb2tlOiMxODE4MTg7c3Ryb2tlLXdpZHRoOjEuMDsiLz48cGF0aCBkPSJNOTc0LjM3NSw3MDEgTDk3NC4zNzUsNjk5LjI1IEw5NjkuMDYyNSw2OTkuMjUgUTk2OS4wNjI1LDY5OS4yNSA5NjkuMDYyNSw2OTUuNjg3NSBMOTczLjMxMjUsNjk1LjY4NzUgTDk3My4zMTI1LDY5My45Mzc1IEw5NjkuMDYyNSw2OTMuOTM3NSBMOTY5LjA2MjUsNjkxLjQzNzUgTDk3NC4zNzUsNjkxLjQzNzUgTDk3NC4zNzUsNjg5LjY4NzUgTDk2Ny4zMTI1LDY4OS42ODc1IFE5NjcuMzEyNSw2ODkuNjg3NSA5NjcuMzEyNSw3MDEgTDk3NC4zNzUsNzAxIFogIiBmaWxsPSIjMDAwMDAwIi8+PHRleHQgZmlsbD0iIzAwMDAwMCIgZm9udC1mYW1pbHk9InNhbnMtc2VyaWYiIGZvbnQtc2l6ZT0iMTQiIGxlbmd0aEFkanVzdD0ic3BhY2luZyIgdGV4dExlbmd0aD0iNTAiIHg9Ijk5MS4yNSIgeT0iNzAwLjc0MjIiPlBheW1lbnQ8L3RleHQ+PGxpbmUgc3R5bGU9InN0cm9rZTojMTgxODE4O3N0cm9rZS13aWR0aDowLjU7IiB4MT0iOTE3LjUiIHgyPSIxMDgyLjUiIHkxPSI3MTEiIHkyPSI3MTEiLz48dGV4dCBmaWxsPSIjMDAwMDAwIiBmb250LWZhbWlseT0ic2Fucy1zZXJpZiIgZm9udC1zaXplPSIxNCIgbGVuZ3RoQWRqdXN0PSJzcGFjaW5nIiB0ZXh0TGVuZ3RoPSIxMTMiIHg9IjkyMi41IiB5PSI3MjguMjM0NCI+cGF5bWVudElkIGludCBQSzwvdGV4dD48dGV4dCBmaWxsPSIjMDAwMDAwIiBmb250LWZhbWlseT0ic2Fucy1zZXJpZiIgZm9udC1zaXplPSIxNCIgbGVuZ3RoQWRqdXN0PSJzcGFjaW5nIiB0ZXh0TGVuZ3RoPSI5OCIgeD0iOTIyLjUiIHk9Ijc0My4yMTg4Ij5vcmRlcklkIGludCBGSzwvdGV4dD48dGV4dCBmaWxsPSIjMDAwMDAwIiBmb250LWZhbWlseT0ic2Fucy1zZXJpZiIgZm9udC1zaXplPSIxNCIgbGVuZ3RoQWRqdXN0PSJzcGFjaW5nIiB0ZXh0TGVuZ3RoPSIxMTMiIHg9IjkyMi41IiB5PSI3NTguMjAzMSI+cGF5bWVudERhdGUgRGF0ZTwvdGV4dD48dGV4dCBmaWxsPSIjMDAwMDAwIiBmb250LWZhbWlseT0ic2Fucy1zZXJpZiIgZm9udC1zaXplPSIxNCIgbGVuZ3RoQWRqdXN0PSJzcGFjaW5nIiB0ZXh0TGVuZ3RoPSIxNTUiIHg9IjkyMi41IiB5PSI3NzMuMTg3NSI+cGF5bWVudE1ldGhvZElkIGludCBGSzwvdGV4dD48bGluZSBzdHlsZT0ic3Ryb2tlOiMxODE4MTg7c3Ryb2tlLXdpZHRoOjAuNTsiIHgxPSI5MTcuNSIgeDI9IjEwODIuNSIgeTE9Ijc3OC45Mzc1IiB5Mj0iNzc4LjkzNzUiLz48L2c+PCEtLWNsYXNzIFBheW1lbnRNZXRob2QtLT48ZyBpZD0iZWxlbV9QYXltZW50TWV0aG9kIj48cmVjdCBjb2RlTGluZT0iNzYiIGZpbGw9IiNGMUYxRjEiIGhlaWdodD0iNzcuOTY4OCIgaWQ9IlBheW1lbnRNZXRob2QiIHJ4PSIyLjUiIHJ5PSIyLjUiIHN0eWxlPSJzdHJva2U6IzE4MTgxODtzdHJva2Utd2lkdGg6MC41OyIgd2lkdGg9IjE4MiIgeD0iOTA5IiB5PSI5MjIiLz48ZWxsaXBzZSBjeD0iOTUwLjEiIGN5PSI5MzgiIGZpbGw9IiNBREQxQjIiIHJ4PSIxMSIgcnk9IjExIiBzdHlsZT0ic3Ryb2tlOiMxODE4MTg7c3Ryb2tlLXdpZHRoOjEuMDsiLz48cGF0aCBkPSJNOTUzLjcyNSw5NDQgTDk1My43MjUsOTQyLjI1IEw5NDguNDEyNSw5NDIuMjUgUTk0OC40MTI1LDk0Mi4yNSA5NDguNDEyNSw5MzguNjg3NSBMOTUyLjY2MjUsOTM4LjY4NzUgTDk1Mi42NjI1LDkzNi45Mzc1IEw5NDguNDEyNSw5MzYuOTM3NSBMOTQ4LjQxMjUsOTM0LjQzNzUgTDk1My43MjUsOTM0LjQzNzUgTDk1My43MjUsOTMyLjY4NzUgTDk0Ni42NjI1LDkzMi42ODc1IFE5NDYuNjYyNSw5MzIuNjg3NSA5NDYuNjYyNSw5NDQgTDk1My43MjUsOTQ0IFogIiBmaWxsPSIjMDAwMDAwIi8+PHRleHQgZmlsbD0iIzAwMDAwMCIgZm9udC1mYW1pbHk9InNhbnMtc2VyaWYiIGZvbnQtc2l6ZT0iMTQiIGxlbmd0aEFkanVzdD0ic3BhY2luZyIgdGV4dExlbmd0aD0iOTIiIHg9Ijk2OS45IiB5PSI5NDMuNzQyMiI+UGF5bWVudE1ldGhvZDwvdGV4dD48bGluZSBzdHlsZT0ic3Ryb2tlOiMxODE4MTg7c3Ryb2tlLXdpZHRoOjAuNTsiIHgxPSI5MTAiIHgyPSIxMDkwIiB5MT0iOTU0IiB5Mj0iOTU0Ii8+PHRleHQgZmlsbD0iIzAwMDAwMCIgZm9udC1mYW1pbHk9InNhbnMtc2VyaWYiIGZvbnQtc2l6ZT0iMTQiIGxlbmd0aEFkanVzdD0ic3BhY2luZyIgdGV4dExlbmd0aD0iMTU1IiB4PSI5MTUiIHk9Ijk3MS4yMzQ0Ij5wYXltZW50TWV0aG9kSWQgaW50IFBLPC90ZXh0Pjx0ZXh0IGZpbGw9IiMwMDAwMDAiIGZvbnQtZmFtaWx5PSJzYW5zLXNlcmlmIiBmb250LXNpemU9IjE0IiBsZW5ndGhBZGp1c3Q9InNwYWNpbmciIHRleHRMZW5ndGg9IjE3MCIgeD0iOTE1IiB5PSI5ODYuMjE4OCI+cGF5bWVudE1ldGhvZE5hbWUgU3RyaW5nPC90ZXh0PjxsaW5lIHN0eWxlPSJzdHJva2U6IzE4MTgxODtzdHJva2Utd2lkdGg6MC41OyIgeDE9IjkxMCIgeDI9IjEwOTAiIHkxPSI5OTEuOTY4OCIgeTI9Ijk5MS45Njg4Ii8+PC9nPjwhLS1jbGFzcyBDdXN0b21lclByb2ZpbGUtLT48ZyBpZD0iZWxlbV9DdXN0b21lclByb2ZpbGUiPjxyZWN0IGNvZGVMaW5lPSI4MyIgZmlsbD0iI0YxRjFGMSIgaGVpZ2h0PSIxMjIuOTIxOSIgaWQ9IkN1c3RvbWVyUHJvZmlsZSIgcng9IjIuNSIgcnk9IjIuNSIgc3R5bGU9InN0cm9rZTojMTgxODE4O3N0cm9rZS13aWR0aDowLjU7IiB3aWR0aD0iMTM4IiB4PSI0NTciIHk9IjM5NS41Ii8+PGVsbGlwc2UgY3g9IjQ3MiIgY3k9IjQxMS41IiBmaWxsPSIjQUREMUIyIiByeD0iMTEiIHJ5PSIxMSIgc3R5bGU9InN0cm9rZTojMTgxODE4O3N0cm9rZS13aWR0aDoxLjA7Ii8+PHBhdGggZD0iTTQ3NS42MjUsNDE3LjUgTDQ3NS42MjUsNDE1Ljc1IEw0NzAuMzEyNSw0MTUuNzUgUTQ3MC4zMTI1LDQxNS43NSA0NzAuMzEyNSw0MTIuMTg3NSBMNDc0LjU2MjUsNDEyLjE4NzUgTDQ3NC41NjI1LDQxMC40Mzc1IEw0NzAuMzEyNSw0MTAuNDM3NSBMNDcwLjMxMjUsNDA3LjkzNzUgTDQ3NS42MjUsNDA3LjkzNzUgTDQ3NS42MjUsNDA2LjE4NzUgTDQ2OC41NjI1LDQwNi4xODc1IFE0NjguNTYyNSw0MDYuMTg3NSA0NjguNTYyNSw0MTcuNSBMNDc1LjYyNSw0MTcuNSBaICIgZmlsbD0iIzAwMDAwMCIvPjx0ZXh0IGZpbGw9IiMwMDAwMDAiIGZvbnQtZmFtaWx5PSJzYW5zLXNlcmlmIiBmb250LXNpemU9IjE0IiBsZW5ndGhBZGp1c3Q9InNwYWNpbmciIHRleHRMZW5ndGg9IjEwNiIgeD0iNDg2IiB5PSI0MTcuMjQyMiI+Q3VzdG9tZXJQcm9maWxlPC90ZXh0PjxsaW5lIHN0eWxlPSJzdHJva2U6IzE4MTgxODtzdHJva2Utd2lkdGg6MC41OyIgeDE9IjQ1OCIgeDI9IjU5NCIgeTE9IjQyNy41IiB5Mj0iNDI3LjUiLz48dGV4dCBmaWxsPSIjMDAwMDAwIiBmb250LWZhbWlseT0ic2Fucy1zZXJpZiIgZm9udC1zaXplPSIxNCIgbGVuZ3RoQWRqdXN0PSJzcGFjaW5nIiB0ZXh0TGVuZ3RoPSIxMTIiIHg9IjQ2MyIgeT0iNDQ0LjczNDQiPnByb2ZpbGVJZCBpbnQgUEs8L3RleHQ+PHRleHQgZmlsbD0iIzAwMDAwMCIgZm9udC1mYW1pbHk9InNhbnMtc2VyaWYiIGZvbnQtc2l6ZT0iMTQiIGxlbmd0aEFkanVzdD0ic3BhY2luZyIgdGV4dExlbmd0aD0iMTIwIiB4PSI0NjMiIHk9IjQ1OS43MTg4Ij5jdXN0b21lcklkIGludCBGSzwvdGV4dD48dGV4dCBmaWxsPSIjMDAwMDAwIiBmb250LWZhbWlseT0ic2Fucy1zZXJpZiIgZm9udC1zaXplPSIxNCIgbGVuZ3RoQWRqdXN0PSJzcGFjaW5nIiB0ZXh0TGVuZ3RoPSI5MSIgeD0iNDYzIiB5PSI0NzQuNzAzMSI+aGVpZ2h0IGRvdWJsZTwvdGV4dD48dGV4dCBmaWxsPSIjMDAwMDAwIiBmb250LWZhbWlseT0ic2Fucy1zZXJpZiIgZm9udC1zaXplPSIxNCIgbGVuZ3RoQWRqdXN0PSJzcGFjaW5nIiB0ZXh0TGVuZ3RoPSI5MiIgeD0iNDYzIiB5PSI0ODkuNjg3NSI+d2VpZ2h0IGRvdWJsZTwvdGV4dD48dGV4dCBmaWxsPSIjMDAwMDAwIiBmb250LWZhbWlseT0ic2Fucy1zZXJpZiIgZm9udC1zaXplPSIxNCIgbGVuZ3RoQWRqdXN0PSJzcGFjaW5nIiB0ZXh0TGVuZ3RoPSI5OCIgeD0iNDYzIiB5PSI1MDQuNjcxOSI+YWxsZXJneSBTdHJpbmc8L3RleHQ+PGxpbmUgc3R5bGU9InN0cm9rZTojMTgxODE4O3N0cm9rZS13aWR0aDowLjU7IiB4MT0iNDU4IiB4Mj0iNTk0IiB5MT0iNTEwLjQyMTkiIHkyPSI1MTAuNDIxOSIvPjwvZz48IS0tY2xhc3MgTm90aWZpY2F0aW9uLS0+PGcgaWQ9ImVsZW1fTm90aWZpY2F0aW9uIj48cmVjdCBjb2RlTGluZT0iOTIiIGZpbGw9IiNGMUYxRjEiIGhlaWdodD0iMTIyLjkyMTkiIGlkPSJOb3RpZmljYXRpb24iIHJ4PSIyLjUiIHJ5PSIyLjUiIHN0eWxlPSJzdHJva2U6IzE4MTgxODtzdHJva2Utd2lkdGg6MC41OyIgd2lkdGg9IjE4NyIgeD0iNjMwLjUiIHk9IjM5NS41Ii8+PGVsbGlwc2UgY3g9IjY3Ny43NSIgY3k9IjQxMS41IiBmaWxsPSIjQUREMUIyIiByeD0iMTEiIHJ5PSIxMSIgc3R5bGU9InN0cm9rZTojMTgxODE4O3N0cm9rZS13aWR0aDoxLjA7Ii8+PHBhdGggZD0iTTY4MS4zNzUsNDE3LjUgTDY4MS4zNzUsNDE1Ljc1IEw2NzYuMDYyNSw0MTUuNzUgUTY3Ni4wNjI1LDQxNS43NSA2NzYuMDYyNSw0MTIuMTg3NSBMNjgwLjMxMjUsNDEyLjE4NzUgTDY4MC4zMTI1LDQxMC40Mzc1IEw2NzYuMDYyNSw0MTAuNDM3NSBMNjc2LjA2MjUsNDA3LjkzNzUgTDY4MS4zNzUsNDA3LjkzNzUgTDY4MS4zNzUsNDA2LjE4NzUgTDY3NC4zMTI1LDQwNi4xODc1IFE2NzQuMzEyNSw0MDYuMTg3NSA2NzQuMzEyNSw0MTcuNSBMNjgxLjM3NSw0MTcuNSBaICIgZmlsbD0iIzAwMDAwMCIvPjx0ZXh0IGZpbGw9IiMwMDAwMDAiIGZvbnQtZmFtaWx5PSJzYW5zLXNlcmlmIiBmb250LXNpemU9IjE0IiBsZW5ndGhBZGp1c3Q9InNwYWNpbmciIHRleHRMZW5ndGg9Ijg0IiB4PSI2OTguMjUiIHk9IjQxNy4yNDIyIj5Ob3RpZmljYXRpb248L3RleHQ+PGxpbmUgc3R5bGU9InN0cm9rZTojMTgxODE4O3N0cm9rZS13aWR0aDowLjU7IiB4MT0iNjMxLjUiIHgyPSI4MTYuNSIgeTE9IjQyNy41IiB5Mj0iNDI3LjUiLz48dGV4dCBmaWxsPSIjMDAwMDAwIiBmb250LWZhbWlseT0ic2Fucy1zZXJpZiIgZm9udC1zaXplPSIxNCIgbGVuZ3RoQWRqdXN0PSJzcGFjaW5nIiB0ZXh0TGVuZ3RoPSIxNDciIHg9IjYzNi41IiB5PSI0NDQuNzM0NCI+bm90aWZpY2F0aW9uSWQgaW50IFBLPC90ZXh0Pjx0ZXh0IGZpbGw9IiMwMDAwMDAiIGZvbnQtZmFtaWx5PSJzYW5zLXNlcmlmIiBmb250LXNpemU9IjE0IiBsZW5ndGhBZGp1c3Q9InNwYWNpbmciIHRleHRMZW5ndGg9IjEyMCIgeD0iNjM2LjUiIHk9IjQ1OS43MTg4Ij5jdXN0b21lcklkIGludCBGSzwvdGV4dD48dGV4dCBmaWxsPSIjMDAwMDAwIiBmb250LWZhbWlseT0ic2Fucy1zZXJpZiIgZm9udC1zaXplPSIxNCIgbGVuZ3RoQWRqdXN0PSJzcGFjaW5nIiB0ZXh0TGVuZ3RoPSIxNzUiIHg9IjYzNi41IiB5PSI0NzQuNzAzMSI+bm90aWZpY2F0aW9uVHlwZUlkIGludCBGSzwvdGV4dD48dGV4dCBmaWxsPSIjMDAwMDAwIiBmb250LWZhbWlseT0ic2Fucy1zZXJpZiIgZm9udC1zaXplPSIxNCIgbGVuZ3RoQWRqdXN0PSJzcGFjaW5nIiB0ZXh0TGVuZ3RoPSI5OSIgeD0iNjM2LjUiIHk9IjQ4OS42ODc1Ij5tZXNzYWdlIFN0cmluZzwvdGV4dD48dGV4dCBmaWxsPSIjMDAwMDAwIiBmb250LWZhbWlseT0ic2Fucy1zZXJpZiIgZm9udC1zaXplPSIxNCIgbGVuZ3RoQWRqdXN0PSJzcGFjaW5nIiB0ZXh0TGVuZ3RoPSIxMDAiIHg9IjYzNi41IiB5PSI1MDQuNjcxOSI+dGltZXN0YW1wIERhdGU8L3RleHQ+PGxpbmUgc3R5bGU9InN0cm9rZTojMTgxODE4O3N0cm9rZS13aWR0aDowLjU7IiB4MT0iNjMxLjUiIHgyPSI4MTYuNSIgeTE9IjUxMC40MjE5IiB5Mj0iNTEwLjQyMTkiLz48L2c+PCEtLWNsYXNzIE5vdGlmaWNhdGlvblR5cGUtLT48ZyBpZD0iZWxlbV9Ob3RpZmljYXRpb25UeXBlIj48cmVjdCBjb2RlTGluZT0iMTAxIiBmaWxsPSIjRjFGMUYxIiBoZWlnaHQ9Ijc3Ljk2ODgiIGlkPSJOb3RpZmljYXRpb25UeXBlIiByeD0iMi41IiByeT0iMi41IiBzdHlsZT0ic3Ryb2tlOiMxODE4MTg7c3Ryb2tlLXdpZHRoOjAuNTsiIHdpZHRoPSIxODciIHg9Ijc0NC41IiB5PSIyMjAiLz48ZWxsaXBzZSBjeD0iNzc4Ljg1IiBjeT0iMjM2IiBmaWxsPSIjQUREMUIyIiByeD0iMTEiIHJ5PSIxMSIgc3R5bGU9InN0cm9rZTojMTgxODE4O3N0cm9rZS13aWR0aDoxLjA7Ii8+PHBhdGggZD0iTTc4Mi40NzUsMjQyIEw3ODIuNDc1LDI0MC4yNSBMNzc3LjE2MjUsMjQwLjI1IFE3NzcuMTYyNSwyNDAuMjUgNzc3LjE2MjUsMjM2LjY4NzUgTDc4MS40MTI1LDIzNi42ODc1IEw3ODEuNDEyNSwyMzQuOTM3NSBMNzc3LjE2MjUsMjM0LjkzNzUgTDc3Ny4xNjI1LDIzMi40Mzc1IEw3ODIuNDc1LDIzMi40Mzc1IEw3ODIuNDc1LDIzMC42ODc1IEw3NzUuNDEyNSwyMzAuNjg3NSBRNzc1LjQxMjUsMjMwLjY4NzUgNzc1LjQxMjUsMjQyIEw3ODIuNDc1LDI0MiBaICIgZmlsbD0iIzAwMDAwMCIvPjx0ZXh0IGZpbGw9IiMwMDAwMDAiIGZvbnQtZmFtaWx5PSJzYW5zLXNlcmlmIiBmb250LXNpemU9IjE0IiBsZW5ndGhBZGp1c3Q9InNwYWNpbmciIHRleHRMZW5ndGg9IjExMiIgeD0iNzk3LjE1IiB5PSIyNDEuNzQyMiI+Tm90aWZpY2F0aW9uVHlwZTwvdGV4dD48bGluZSBzdHlsZT0ic3Ryb2tlOiMxODE4MTg7c3Ryb2tlLXdpZHRoOjAuNTsiIHgxPSI3NDUuNSIgeDI9IjkzMC41IiB5MT0iMjUyIiB5Mj0iMjUyIi8+PHRleHQgZmlsbD0iIzAwMDAwMCIgZm9udC1mYW1pbHk9InNhbnMtc2VyaWYiIGZvbnQtc2l6ZT0iMTQiIGxlbmd0aEFkanVzdD0ic3BhY2luZyIgdGV4dExlbmd0aD0iMTc1IiB4PSI3NTAuNSIgeT0iMjY5LjIzNDQiPm5vdGlmaWNhdGlvblR5cGVJZCBpbnQgUEs8L3RleHQ+PHRleHQgZmlsbD0iIzAwMDAwMCIgZm9udC1mYW1pbHk9InNhbnMtc2VyaWYiIGZvbnQtc2l6ZT0iMTQiIGxlbmd0aEFkanVzdD0ic3BhY2luZyIgdGV4dExlbmd0aD0iMTA2IiB4PSI3NTAuNSIgeT0iMjg0LjIxODgiPnR5cGVOYW1lIFN0cmluZzwvdGV4dD48bGluZSBzdHlsZT0ic3Ryb2tlOiMxODE4MTg7c3Ryb2tlLXdpZHRoOjAuNTsiIHgxPSI3NDUuNSIgeDI9IjkzMC41IiB5MT0iMjg5Ljk2ODgiIHkyPSIyODkuOTY4OCIvPjwvZz48IS0tY2xhc3MgUmV2aWV3LS0+PGcgaWQ9ImVsZW1fUmV2aWV3Ij48cmVjdCBjb2RlTGluZT0iMTA3IiBmaWxsPSIjRjFGMUYxIiBoZWlnaHQ9IjEzNy45MDYzIiBpZD0iUmV2aWV3IiByeD0iMi41IiByeT0iMi41IiBzdHlsZT0ic3Ryb2tlOiMxODE4MTg7c3Ryb2tlLXdpZHRoOjAuNTsiIHdpZHRoPSIxNDUiIHg9IjIwNS41IiB5PSIzODgiLz48ZWxsaXBzZSBjeD0iMjUyLjI1IiBjeT0iNDA0IiBmaWxsPSIjQUREMUIyIiByeD0iMTEiIHJ5PSIxMSIgc3R5bGU9InN0cm9rZTojMTgxODE4O3N0cm9rZS13aWR0aDoxLjA7Ii8+PHBhdGggZD0iTTI1NS44NzUsNDEwIEwyNTUuODc1LDQwOC4yNSBMMjUwLjU2MjUsNDA4LjI1IFEyNTAuNTYyNSw0MDguMjUgMjUwLjU2MjUsNDA0LjY4NzUgTDI1NC44MTI1LDQwNC42ODc1IEwyNTQuODEyNSw0MDIuOTM3NSBMMjUwLjU2MjUsNDAyLjkzNzUgTDI1MC41NjI1LDQwMC40Mzc1IEwyNTUuODc1LDQwMC40Mzc1IEwyNTUuODc1LDM5OC42ODc1IEwyNDguODEyNSwzOTguNjg3NSBRMjQ4LjgxMjUsMzk4LjY4NzUgMjQ4LjgxMjUsNDEwIEwyNTUuODc1LDQxMCBaICIgZmlsbD0iIzAwMDAwMCIvPjx0ZXh0IGZpbGw9IiMwMDAwMDAiIGZvbnQtZmFtaWx5PSJzYW5zLXNlcmlmIiBmb250LXNpemU9IjE0IiBsZW5ndGhBZGp1c3Q9InNwYWNpbmciIHRleHRMZW5ndGg9IjQzIiB4PSIyNzIuNzUiIHk9IjQwOS43NDIyIj5SZXZpZXc8L3RleHQ+PGxpbmUgc3R5bGU9InN0cm9rZTojMTgxODE4O3N0cm9rZS13aWR0aDowLjU7IiB4MT0iMjA2LjUiIHgyPSIzNDkuNSIgeTE9IjQyMCIgeTI9IjQyMCIvPjx0ZXh0IGZpbGw9IiMwMDAwMDAiIGZvbnQtZmFtaWx5PSJzYW5zLXNlcmlmIiBmb250LXNpemU9IjE0IiBsZW5ndGhBZGp1c3Q9InNwYWNpbmciIHRleHRMZW5ndGg9IjEwNiIgeD0iMjExLjUiIHk9IjQzNy4yMzQ0Ij5yZXZpZXdJZCBpbnQgUEs8L3RleHQ+PHRleHQgZmlsbD0iIzAwMDAwMCIgZm9udC1mYW1pbHk9InNhbnMtc2VyaWYiIGZvbnQtc2l6ZT0iMTQiIGxlbmd0aEFkanVzdD0ic3BhY2luZyIgdGV4dExlbmd0aD0iMTIwIiB4PSIyMTEuNSIgeT0iNDUyLjIxODgiPmN1c3RvbWVySWQgaW50IEZLPC90ZXh0Pjx0ZXh0IGZpbGw9IiMwMDAwMDAiIGZvbnQtZmFtaWx5PSJzYW5zLXNlcmlmIiBmb250LXNpemU9IjE0IiBsZW5ndGhBZGp1c3Q9InNwYWNpbmciIHRleHRMZW5ndGg9IjEzMyIgeD0iMjExLjUiIHk9IjQ2Ny4yMDMxIj5yZXN0YXVyYW50SWQgaW50IEZLPC90ZXh0Pjx0ZXh0IGZpbGw9IiMwMDAwMDAiIGZvbnQtZmFtaWx5PSJzYW5zLXNlcmlmIiBmb250LXNpemU9IjE0IiBsZW5ndGhBZGp1c3Q9InNwYWNpbmciIHRleHRMZW5ndGg9IjcwIiB4PSIyMTEuNSIgeT0iNDgyLjE4NzUiPnJhdGluZyBpbnQ8L3RleHQ+PHRleHQgZmlsbD0iIzAwMDAwMCIgZm9udC1mYW1pbHk9InNhbnMtc2VyaWYiIGZvbnQtc2l6ZT0iMTQiIGxlbmd0aEFkanVzdD0ic3BhY2luZyIgdGV4dExlbmd0aD0iMTAwIiB4PSIyMTEuNSIgeT0iNDk3LjE3MTkiPmNvbW1lbnQgU3RyaW5nPC90ZXh0Pjx0ZXh0IGZpbGw9IiMwMDAwMDAiIGZvbnQtZmFtaWx5PSJzYW5zLXNlcmlmIiBmb250LXNpemU9IjE0IiBsZW5ndGhBZGp1c3Q9InNwYWNpbmciIHRleHRMZW5ndGg9IjEwNiIgeD0iMjExLjUiIHk9IjUxMi4xNTYzIj5yZXZpZXdEYXRlIERhdGU8L3RleHQ+PGxpbmUgc3R5bGU9InN0cm9rZTojMTgxODE4O3N0cm9rZS13aWR0aDowLjU7IiB4MT0iMjA2LjUiIHgyPSIzNDkuNSIgeTE9IjUxNy45MDYzIiB5Mj0iNTE3LjkwNjMiLz48L2c+PCEtLWNsYXNzIEluZ3JlZGllbnQtLT48ZyBpZD0iZWxlbV9JbmdyZWRpZW50Ij48cmVjdCBjb2RlTGluZT0iMTE3IiBmaWxsPSIjRjFGMUYxIiBoZWlnaHQ9Ijc3Ljk2ODgiIGlkPSJJbmdyZWRpZW50IiByeD0iMi41IiByeT0iMi41IiBzdHlsZT0ic3Ryb2tlOiMxODE4MTg7c3Ryb2tlLXdpZHRoOjAuNTsiIHdpZHRoPSIxNjAiIHg9IjciIHk9IjExNTcuNSIvPjxlbGxpcHNlIGN4PSI0OC4xIiBjeT0iMTE3My41IiBmaWxsPSIjQUREMUIyIiByeD0iMTEiIHJ5PSIxMSIgc3R5bGU9InN0cm9rZTojMTgxODE4O3N0cm9rZS13aWR0aDoxLjA7Ii8+PHBhdGggZD0iTTUxLjcyNSwxMTc5LjUgTDUxLjcyNSwxMTc3Ljc1IEw0Ni40MTI1LDExNzcuNzUgUTQ2LjQxMjUsMTE3Ny43NSA0Ni40MTI1LDExNzQuMTg3NSBMNTAuNjYyNSwxMTc0LjE4NzUgTDUwLjY2MjUsMTE3Mi40Mzc1IEw0Ni40MTI1LDExNzIuNDM3NSBMNDYuNDEyNSwxMTY5LjkzNzUgTDUxLjcyNSwxMTY5LjkzNzUgTDUxLjcyNSwxMTY4LjE4NzUgTDQ0LjY2MjUsMTE2OC4xODc1IFE0NC42NjI1LDExNjguMTg3NSA0NC42NjI1LDExNzkuNSBMNTEuNzI1LDExNzkuNSBaICIgZmlsbD0iIzAwMDAwMCIvPjx0ZXh0IGZpbGw9IiMwMDAwMDAiIGZvbnQtZmFtaWx5PSJzYW5zLXNlcmlmIiBmb250LXNpemU9IjE0IiBsZW5ndGhBZGp1c3Q9InNwYWNpbmciIHRleHRMZW5ndGg9IjcwIiB4PSI2Ny45IiB5PSIxMTc5LjI0MjIiPkluZ3JlZGllbnQ8L3RleHQ+PGxpbmUgc3R5bGU9InN0cm9rZTojMTgxODE4O3N0cm9rZS13aWR0aDowLjU7IiB4MT0iOCIgeDI9IjE2NiIgeTE9IjExODkuNSIgeTI9IjExODkuNSIvPjx0ZXh0IGZpbGw9IiMwMDAwMDAiIGZvbnQtZmFtaWx5PSJzYW5zLXNlcmlmIiBmb250LXNpemU9IjE0IiBsZW5ndGhBZGp1c3Q9InNwYWNpbmciIHRleHRMZW5ndGg9IjEzMyIgeD0iMTMiIHk9IjEyMDYuNzM0NCI+aW5ncmVkaWVudElkIGludCBQSzwvdGV4dD48dGV4dCBmaWxsPSIjMDAwMDAwIiBmb250LWZhbWlseT0ic2Fucy1zZXJpZiIgZm9udC1zaXplPSIxNCIgbGVuZ3RoQWRqdXN0PSJzcGFjaW5nIiB0ZXh0TGVuZ3RoPSIxNDgiIHg9IjEzIiB5PSIxMjIxLjcxODgiPmluZ3JlZGllbnROYW1lIFN0cmluZzwvdGV4dD48bGluZSBzdHlsZT0ic3Ryb2tlOiMxODE4MTg7c3Ryb2tlLXdpZHRoOjAuNTsiIHgxPSI4IiB4Mj0iMTY2IiB5MT0iMTIyNy40Njg4IiB5Mj0iMTIyNy40Njg4Ii8+PC9nPjwhLS1jbGFzcyBPcmRlckl0ZW0tLT48ZyBpZD0iZWxlbV9PcmRlckl0ZW0iPjxyZWN0IGNvZGVMaW5lPSIxMjMiIGZpbGw9IiNGMUYxRjEiIGhlaWdodD0iMTA3LjkzNzUiIGlkPSJPcmRlckl0ZW0iIHJ4PSIyLjUiIHJ5PSIyLjUiIHN0eWxlPSJzdHJva2U6IzE4MTgxODtzdHJva2Utd2lkdGg6MC41OyIgd2lkdGg9IjEzOSIgeD0iNjcyLjUiIHk9IjY3OSIvPjxlbGxpcHNlIGN4PSI3MDYuODUiIGN5PSI2OTUiIGZpbGw9IiNBREQxQjIiIHJ4PSIxMSIgcnk9IjExIiBzdHlsZT0ic3Ryb2tlOiMxODE4MTg7c3Ryb2tlLXdpZHRoOjEuMDsiLz48cGF0aCBkPSJNNzEwLjQ3NSw3MDEgTDcxMC40NzUsNjk5LjI1IEw3MDUuMTYyNSw2OTkuMjUgUTcwNS4xNjI1LDY5OS4yNSA3MDUuMTYyNSw2OTUuNjg3NSBMNzA5LjQxMjUsNjk1LjY4NzUgTDcwOS40MTI1LDY5My45Mzc1IEw3MDUuMTYyNSw2OTMuOTM3NSBMNzA1LjE2MjUsNjkxLjQzNzUgTDcxMC40NzUsNjkxLjQzNzUgTDcxMC40NzUsNjg5LjY4NzUgTDcwMy40MTI1LDY4OS42ODc1IFE3MDMuNDEyNSw2ODkuNjg3NSA3MDMuNDEyNSw3MDEgTDcxMC40NzUsNzAxIFogIiBmaWxsPSIjMDAwMDAwIi8+PHRleHQgZmlsbD0iIzAwMDAwMCIgZm9udC1mYW1pbHk9InNhbnMtc2VyaWYiIGZvbnQtc2l6ZT0iMTQiIGxlbmd0aEFkanVzdD0ic3BhY2luZyIgdGV4dExlbmd0aD0iNjQiIHg9IjcyNS4xNSIgeT0iNzAwLjc0MjIiPk9yZGVySXRlbTwvdGV4dD48bGluZSBzdHlsZT0ic3Ryb2tlOiMxODE4MTg7c3Ryb2tlLXdpZHRoOjAuNTsiIHgxPSI2NzMuNSIgeDI9IjgxMC41IiB5MT0iNzExIiB5Mj0iNzExIi8+PHRleHQgZmlsbD0iIzAwMDAwMCIgZm9udC1mYW1pbHk9InNhbnMtc2VyaWYiIGZvbnQtc2l6ZT0iMTQiIGxlbmd0aEFkanVzdD0ic3BhY2luZyIgdGV4dExlbmd0aD0iMTI3IiB4PSI2NzguNSIgeT0iNzI4LjIzNDQiPm9yZGVySXRlbUlkIGludCBQSzwvdGV4dD48dGV4dCBmaWxsPSIjMDAwMDAwIiBmb250LWZhbWlseT0ic2Fucy1zZXJpZiIgZm9udC1zaXplPSIxNCIgbGVuZ3RoQWRqdXN0PSJzcGFjaW5nIiB0ZXh0TGVuZ3RoPSI5OCIgeD0iNjc4LjUiIHk9Ijc0My4yMTg4Ij5vcmRlcklkIGludCBGSzwvdGV4dD48dGV4dCBmaWxsPSIjMDAwMDAwIiBmb250LWZhbWlseT0ic2Fucy1zZXJpZiIgZm9udC1zaXplPSIxNCIgbGVuZ3RoQWRqdXN0PSJzcGFjaW5nIiB0ZXh0TGVuZ3RoPSIxMjEiIHg9IjY3OC41IiB5PSI3NTguMjAzMSI+bWVudUl0ZW1JZCBpbnQgRks8L3RleHQ+PHRleHQgZmlsbD0iIzAwMDAwMCIgZm9udC1mYW1pbHk9InNhbnMtc2VyaWYiIGZvbnQtc2l6ZT0iMTQiIGxlbmd0aEFkanVzdD0ic3BhY2luZyIgdGV4dExlbmd0aD0iODQiIHg9IjY3OC41IiB5PSI3NzMuMTg3NSI+cXVhbnRpdHkgaW50PC90ZXh0PjxsaW5lIHN0eWxlPSJzdHJva2U6IzE4MTgxODtzdHJva2Utd2lkdGg6MC41OyIgeDE9IjY3My41IiB4Mj0iODEwLjUiIHkxPSI3NzguOTM3NSIgeTI9Ijc3OC45Mzc1Ii8+PC9nPjwhLS1jbGFzcyBDb3Vwb24tLT48ZyBpZD0iZWxlbV9Db3Vwb24iPjxyZWN0IGNvZGVMaW5lPSIxMzEiIGZpbGw9IiNGMUYxRjEiIGhlaWdodD0iMTIyLjkyMTkiIGlkPSJDb3Vwb24iIHJ4PSIyLjUiIHJ5PSIyLjUiIHN0eWxlPSJzdHJva2U6IzE4MTgxODtzdHJva2Utd2lkdGg6MC41OyIgd2lkdGg9IjE4MiIgeD0iMTE0MCIgeT0iMzk1LjUiLz48ZWxsaXBzZSBjeD0iMTIwNS43NSIgY3k9IjQxMS41IiBmaWxsPSIjQUREMUIyIiByeD0iMTEiIHJ5PSIxMSIgc3R5bGU9InN0cm9rZTojMTgxODE4O3N0cm9rZS13aWR0aDoxLjA7Ii8+PHBhdGggZD0iTTEyMDkuMzc1LDQxNy41IEwxMjA5LjM3NSw0MTUuNzUgTDEyMDQuMDYyNSw0MTUuNzUgUTEyMDQuMDYyNSw0MTUuNzUgMTIwNC4wNjI1LDQxMi4xODc1IEwxMjA4LjMxMjUsNDEyLjE4NzUgTDEyMDguMzEyNSw0MTAuNDM3NSBMMTIwNC4wNjI1LDQxMC40Mzc1IEwxMjA0LjA2MjUsNDA3LjkzNzUgTDEyMDkuMzc1LDQwNy45Mzc1IEwxMjA5LjM3NSw0MDYuMTg3NSBMMTIwMi4zMTI1LDQwNi4xODc1IFExMjAyLjMxMjUsNDA2LjE4NzUgMTIwMi4zMTI1LDQxNy41IEwxMjA5LjM3NSw0MTcuNSBaICIgZmlsbD0iIzAwMDAwMCIvPjx0ZXh0IGZpbGw9IiMwMDAwMDAiIGZvbnQtZmFtaWx5PSJzYW5zLXNlcmlmIiBmb250LXNpemU9IjE0IiBsZW5ndGhBZGp1c3Q9InNwYWNpbmciIHRleHRMZW5ndGg9IjQyIiB4PSIxMjI2LjI1IiB5PSI0MTcuMjQyMiI+Q291cG9uPC90ZXh0PjxsaW5lIHN0eWxlPSJzdHJva2U6IzE4MTgxODtzdHJva2Utd2lkdGg6MC41OyIgeDE9IjExNDEiIHgyPSIxMzIxIiB5MT0iNDI3LjUiIHkyPSI0MjcuNSIvPjx0ZXh0IGZpbGw9IiMwMDAwMDAiIGZvbnQtZmFtaWx5PSJzYW5zLXNlcmlmIiBmb250LXNpemU9IjE0IiBsZW5ndGhBZGp1c3Q9InNwYWNpbmciIHRleHRMZW5ndGg9IjEwNSIgeD0iMTE0NiIgeT0iNDQ0LjczNDQiPmNvdXBvbklkIGludCBQSzwvdGV4dD48dGV4dCBmaWxsPSIjMDAwMDAwIiBmb250LWZhbWlseT0ic2Fucy1zZXJpZiIgZm9udC1zaXplPSIxNCIgbGVuZ3RoQWRqdXN0PSJzcGFjaW5nIiB0ZXh0TGVuZ3RoPSIxNjgiIHg9IjExNDYiIHk9IjQ1OS43MTg4Ij5jb3Vwb25Db2RlIFN0cmluZyBVTklRVUU8L3RleHQ+PHRleHQgZmlsbD0iIzAwMDAwMCIgZm9udC1mYW1pbHk9InNhbnMtc2VyaWYiIGZvbnQtc2l6ZT0iMTQiIGxlbmd0aEFkanVzdD0ic3BhY2luZyIgdGV4dExlbmd0aD0iMTA1IiB4PSIxMTQ2IiB5PSI0NzQuNzAzMSI+ZGlzY291bnQgZG91YmxlPC90ZXh0Pjx0ZXh0IGZpbGw9IiMwMDAwMDAiIGZvbnQtZmFtaWx5PSJzYW5zLXNlcmlmIiBmb250LXNpemU9IjE0IiBsZW5ndGhBZGp1c3Q9InNwYWNpbmciIHRleHRMZW5ndGg9IjEzMyIgeD0iMTE0NiIgeT0iNDg5LjY4NzUiPmV4cGlyYXRpb25EYXRlIERhdGU8L3RleHQ+PHRleHQgZmlsbD0iIzAwMDAwMCIgZm9udC1mYW1pbHk9InNhbnMtc2VyaWYiIGZvbnQtc2l6ZT0iMTQiIGxlbmd0aEFkanVzdD0ic3BhY2luZyIgdGV4dExlbmd0aD0iMTcwIiB4PSIxMTQ2IiB5PSI1MDQuNjcxOSI+bWluUHVyY2hhc2VBbW91bnQgZG91YmxlPC90ZXh0PjxsaW5lIHN0eWxlPSJzdHJva2U6IzE4MTgxODtzdHJva2Utd2lkdGg6MC41OyIgeDE9IjExNDEiIHgyPSIxMzIxIiB5MT0iNTEwLjQyMTkiIHkyPSI1MTAuNDIxOSIvPjwvZz48IS0tY2xhc3MgQ291cG9uVXNhZ2UtLT48ZyBpZD0iZWxlbV9Db3Vwb25Vc2FnZSI+PHJlY3QgY29kZUxpbmU9IjE0MCIgZmlsbD0iI0YxRjFGMSIgaGVpZ2h0PSIxMDcuOTM3NSIgaWQ9IkNvdXBvblVzYWdlIiByeD0iMi41IiByeT0iMi41IiBzdHlsZT0ic3Ryb2tlOiMxODE4MTg7c3Ryb2tlLXdpZHRoOjAuNTsiIHdpZHRoPSIxMTciIHg9IjExNDUuNSIgeT0iNjc5Ii8+PGVsbGlwc2UgY3g9IjExNjQuMSIgY3k9IjY5NSIgZmlsbD0iI0FERDFCMiIgcng9IjExIiByeT0iMTEiIHN0eWxlPSJzdHJva2U6IzE4MTgxODtzdHJva2Utd2lkdGg6MS4wOyIvPjxwYXRoIGQ9Ik0xMTY3LjcyNSw3MDEgTDExNjcuNzI1LDY5OS4yNSBMMTE2Mi40MTI1LDY5OS4yNSBRMTE2Mi40MTI1LDY5OS4yNSAxMTYyLjQxMjUsNjk1LjY4NzUgTDExNjYuNjYyNSw2OTUuNjg3NSBMMTE2Ni42NjI1LDY5My45Mzc1IEwxMTYyLjQxMjUsNjkzLjkzNzUgTDExNjIuNDEyNSw2OTEuNDM3NSBMMTE2Ny43MjUsNjkxLjQzNzUgTDExNjcuNzI1LDY4OS42ODc1IEwxMTYwLjY2MjUsNjg5LjY4NzUgUTExNjAuNjYyNSw2ODkuNjg3NSAxMTYwLjY2MjUsNzAxIEwxMTY3LjcyNSw3MDEgWiAiIGZpbGw9IiMwMDAwMDAiLz48dGV4dCBmaWxsPSIjMDAwMDAwIiBmb250LWZhbWlseT0ic2Fucy1zZXJpZiIgZm9udC1zaXplPSIxNCIgbGVuZ3RoQWRqdXN0PSJzcGFjaW5nIiB0ZXh0TGVuZ3RoPSI3NyIgeD0iMTE3OC45IiB5PSI3MDAuNzQyMiI+Q291cG9uVXNhZ2U8L3RleHQ+PGxpbmUgc3R5bGU9InN0cm9rZTojMTgxODE4O3N0cm9rZS13aWR0aDowLjU7IiB4MT0iMTE0Ni41IiB4Mj0iMTI2MS41IiB5MT0iNzExIiB5Mj0iNzExIi8+PHRleHQgZmlsbD0iIzAwMDAwMCIgZm9udC1mYW1pbHk9InNhbnMtc2VyaWYiIGZvbnQtc2l6ZT0iMTQiIGxlbmd0aEFkanVzdD0ic3BhY2luZyIgdGV4dExlbmd0aD0iOTgiIHg9IjExNTEuNSIgeT0iNzI4LjIzNDQiPnVzYWdlSWQgaW50IFBLPC90ZXh0Pjx0ZXh0IGZpbGw9IiMwMDAwMDAiIGZvbnQtZmFtaWx5PSJzYW5zLXNlcmlmIiBmb250LXNpemU9IjE0IiBsZW5ndGhBZGp1c3Q9InNwYWNpbmciIHRleHRMZW5ndGg9Ijk4IiB4PSIxMTUxLjUiIHk9Ijc0My4yMTg4Ij5vcmRlcklkIGludCBGSzwvdGV4dD48dGV4dCBmaWxsPSIjMDAwMDAwIiBmb250LWZhbWlseT0ic2Fucy1zZXJpZiIgZm9udC1zaXplPSIxNCIgbGVuZ3RoQWRqdXN0PSJzcGFjaW5nIiB0ZXh0TGVuZ3RoPSIxMDUiIHg9IjExNTEuNSIgeT0iNzU4LjIwMzEiPmNvdXBvbklkIGludCBGSzwvdGV4dD48dGV4dCBmaWxsPSIjMDAwMDAwIiBmb250LWZhbWlseT0ic2Fucy1zZXJpZiIgZm9udC1zaXplPSIxNCIgbGVuZ3RoQWRqdXN0PSJzcGFjaW5nIiB0ZXh0TGVuZ3RoPSI5OCIgeD0iMTE1MS41IiB5PSI3NzMuMTg3NSI+dXNhZ2VEYXRlIERhdGU8L3RleHQ+PGxpbmUgc3R5bGU9InN0cm9rZTojMTgxODE4O3N0cm9rZS13aWR0aDowLjU7IiB4MT0iMTE0Ni41IiB4Mj0iMTI2MS41IiB5MT0iNzc4LjkzNzUiIHkyPSI3NzguOTM3NSIvPjwvZz48IS0tY2xhc3MgUmVzdGF1cmFudEJyYW5jaC0tPjxnIGlkPSJlbGVtX1Jlc3RhdXJhbnRCcmFuY2giPjxyZWN0IGNvZGVMaW5lPSIxNDgiIGZpbGw9IiNGMUYxRjEiIGhlaWdodD0iMTA3LjkzNzUiIGlkPSJSZXN0YXVyYW50QnJhbmNoIiByeD0iMi41IiByeT0iMi41IiBzdHlsZT0ic3Ryb2tlOiMxODE4MTg7c3Ryb2tlLXdpZHRoOjAuNTsiIHdpZHRoPSIxODAiIHg9IjEzNTciIHk9IjQwMyIvPjxlbGxpcHNlIGN4PSIxMzg4LjIiIGN5PSI0MTkiIGZpbGw9IiNBREQxQjIiIHJ4PSIxMSIgcnk9IjExIiBzdHlsZT0ic3Ryb2tlOiMxODE4MTg7c3Ryb2tlLXdpZHRoOjEuMDsiLz48cGF0aCBkPSJNMTM5MS44MjUsNDI1IEwxMzkxLjgyNSw0MjMuMjUgTDEzODYuNTEyNSw0MjMuMjUgUTEzODYuNTEyNSw0MjMuMjUgMTM4Ni41MTI1LDQxOS42ODc1IEwxMzkwLjc2MjUsNDE5LjY4NzUgTDEzOTAuNzYyNSw0MTcuOTM3NSBMMTM4Ni41MTI1LDQxNy45Mzc1IEwxMzg2LjUxMjUsNDE1LjQzNzUgTDEzOTEuODI1LDQxNS40Mzc1IEwxMzkxLjgyNSw0MTMuNjg3NSBMMTM4NC43NjI1LDQxMy42ODc1IFExMzg0Ljc2MjUsNDEzLjY4NzUgMTM4NC43NjI1LDQyNSBMMTM5MS44MjUsNDI1IFogIiBmaWxsPSIjMDAwMDAwIi8+PHRleHQgZmlsbD0iIzAwMDAwMCIgZm9udC1mYW1pbHk9InNhbnMtc2VyaWYiIGZvbnQtc2l6ZT0iMTQiIGxlbmd0aEFkanVzdD0ic3BhY2luZyIgdGV4dExlbmd0aD0iMTEyIiB4PSIxNDA1LjgiIHk9IjQyNC43NDIyIj5SZXN0YXVyYW50QnJhbmNoPC90ZXh0PjxsaW5lIHN0eWxlPSJzdHJva2U6IzE4MTgxODtzdHJva2Utd2lkdGg6MC41OyIgeDE9IjEzNTgiIHgyPSIxNTM2IiB5MT0iNDM1IiB5Mj0iNDM1Ii8+PHRleHQgZmlsbD0iIzAwMDAwMCIgZm9udC1mYW1pbHk9InNhbnMtc2VyaWYiIGZvbnQtc2l6ZT0iMTQiIGxlbmd0aEFkanVzdD0ic3BhY2luZyIgdGV4dExlbmd0aD0iMTA1IiB4PSIxMzYzIiB5PSI0NTIuMjM0NCI+YnJhbmNoSWQgaW50IFBLPC90ZXh0Pjx0ZXh0IGZpbGw9IiMwMDAwMDAiIGZvbnQtZmFtaWx5PSJzYW5zLXNlcmlmIiBmb250LXNpemU9IjE0IiBsZW5ndGhBZGp1c3Q9InNwYWNpbmciIHRleHRMZW5ndGg9IjEzMyIgeD0iMTM2MyIgeT0iNDY3LjIxODgiPnJlc3RhdXJhbnRJZCBpbnQgRks8L3RleHQ+PHRleHQgZmlsbD0iIzAwMDAwMCIgZm9udC1mYW1pbHk9InNhbnMtc2VyaWYiIGZvbnQtc2l6ZT0iMTQiIGxlbmd0aEFkanVzdD0ic3BhY2luZyIgdGV4dExlbmd0aD0iMTQ3IiB4PSIxMzYzIiB5PSI0ODIuMjAzMSI+YnJhbmNoTG9jYXRpb24gU3RyaW5nPC90ZXh0Pjx0ZXh0IGZpbGw9IiMwMDAwMDAiIGZvbnQtZmFtaWx5PSJzYW5zLXNlcmlmIiBmb250LXNpemU9IjE0IiBsZW5ndGhBZGp1c3Q9InNwYWNpbmciIHRleHRMZW5ndGg9IjE2OCIgeD0iMTM2MyIgeT0iNDk3LjE4NzUiPmJyYW5jaENvbnRhY3RJbmZvIFN0cmluZzwvdGV4dD48bGluZSBzdHlsZT0ic3Ryb2tlOiMxODE4MTg7c3Ryb2tlLXdpZHRoOjAuNTsiIHgxPSIxMzU4IiB4Mj0iMTUzNiIgeTE9IjUwMi45Mzc1IiB5Mj0iNTAyLjkzNzUiLz48L2c+PCEtLWNsYXNzIFN5c3RlbUxvZy0tPjxnIGlkPSJlbGVtX1N5c3RlbUxvZyI+PHJlY3QgY29kZUxpbmU9IjE1NiIgZmlsbD0iI0YxRjFGMSIgaGVpZ2h0PSIxMDcuOTM3NSIgaWQ9IlN5c3RlbUxvZyIgcng9IjIuNSIgcnk9IjIuNSIgc3R5bGU9InN0cm9rZTojMTgxODE4O3N0cm9rZS13aWR0aDowLjU7IiB3aWR0aD0iMTMxIiB4PSI5ODEuNSIgeT0iMjA1Ii8+PGVsbGlwc2UgY3g9IjEwMTIuMjUiIGN5PSIyMjEiIGZpbGw9IiNBREQxQjIiIHJ4PSIxMSIgcnk9IjExIiBzdHlsZT0ic3Ryb2tlOiMxODE4MTg7c3Ryb2tlLXdpZHRoOjEuMDsiLz48cGF0aCBkPSJNMTAxNS44NzUsMjI3IEwxMDE1Ljg3NSwyMjUuMjUgTDEwMTAuNTYyNSwyMjUuMjUgUTEwMTAuNTYyNSwyMjUuMjUgMTAxMC41NjI1LDIyMS42ODc1IEwxMDE0LjgxMjUsMjIxLjY4NzUgTDEwMTQuODEyNSwyMTkuOTM3NSBMMTAxMC41NjI1LDIxOS45Mzc1IEwxMDEwLjU2MjUsMjE3LjQzNzUgTDEwMTUuODc1LDIxNy40Mzc1IEwxMDE1Ljg3NSwyMTUuNjg3NSBMMTAwOC44MTI1LDIxNS42ODc1IFExMDA4LjgxMjUsMjE1LjY4NzUgMTAwOC44MTI1LDIyNyBMMTAxNS44NzUsMjI3IFogIiBmaWxsPSIjMDAwMDAwIi8+PHRleHQgZmlsbD0iIzAwMDAwMCIgZm9udC1mYW1pbHk9InNhbnMtc2VyaWYiIGZvbnQtc2l6ZT0iMTQiIGxlbmd0aEFkanVzdD0ic3BhY2luZyIgdGV4dExlbmd0aD0iNjQiIHg9IjEwMjkuNzUiIHk9IjIyNi43NDIyIj5TeXN0ZW1Mb2c8L3RleHQ+PGxpbmUgc3R5bGU9InN0cm9rZTojMTgxODE4O3N0cm9rZS13aWR0aDowLjU7IiB4MT0iOTgyLjUiIHgyPSIxMTExLjUiIHkxPSIyMzciIHkyPSIyMzciLz48dGV4dCBmaWxsPSIjMDAwMDAwIiBmb250LWZhbWlseT0ic2Fucy1zZXJpZiIgZm9udC1zaXplPSIxNCIgbGVuZ3RoQWRqdXN0PSJzcGFjaW5nIiB0ZXh0TGVuZ3RoPSI4NCIgeD0iOTg3LjUiIHk9IjI1NC4yMzQ0Ij5sb2dJZCBpbnQgUEs8L3RleHQ+PHRleHQgZmlsbD0iIzAwMDAwMCIgZm9udC1mYW1pbHk9InNhbnMtc2VyaWYiIGZvbnQtc2l6ZT0iMTQiIGxlbmd0aEFkanVzdD0ic3BhY2luZyIgdGV4dExlbmd0aD0iODQiIHg9Ijk4Ny41IiB5PSIyNjkuMjE4OCI+bG9nRGF0ZSBEYXRlPC90ZXh0Pjx0ZXh0IGZpbGw9IiMwMDAwMDAiIGZvbnQtZmFtaWx5PSJzYW5zLXNlcmlmIiBmb250LXNpemU9IjE0IiBsZW5ndGhBZGp1c3Q9InNwYWNpbmciIHRleHRMZW5ndGg9IjExOSIgeD0iOTg3LjUiIHk9IjI4NC4yMDMxIj5sb2dNZXNzYWdlIFN0cmluZzwvdGV4dD48dGV4dCBmaWxsPSIjMDAwMDAwIiBmb250LWZhbWlseT0ic2Fucy1zZXJpZiIgZm9udC1zaXplPSIxNCIgbGVuZ3RoQWRqdXN0PSJzcGFjaW5nIiB0ZXh0TGVuZ3RoPSIxMDUiIHg9Ijk4Ny41IiB5PSIyOTkuMTg3NSI+bG9nTGV2ZWwgU3RyaW5nPC90ZXh0PjxsaW5lIHN0eWxlPSJzdHJva2U6IzE4MTgxODtzdHJva2Utd2lkdGg6MC41OyIgeDE9Ijk4Mi41IiB4Mj0iMTExMS41IiB5MT0iMzA0LjkzNzUiIHkyPSIzMDQuOTM3NSIvPjwvZz48IS0tY2xhc3MgUmVjb21tZW5kYXRpb24tLT48ZyBpZD0iZWxlbV9SZWNvbW1lbmRhdGlvbiI+PHJlY3QgY29kZUxpbmU9IjE2NCIgZmlsbD0iI0YxRjFGMSIgaGVpZ2h0PSIxMjIuOTIxOSIgaWQ9IlJlY29tbWVuZGF0aW9uIiByeD0iMi41IiByeT0iMi41IiBzdHlsZT0ic3Ryb2tlOiMxODE4MTg7c3Ryb2tlLXdpZHRoOjAuNTsiIHdpZHRoPSIyMTAiIHg9IjI1MCIgeT0iMTEzNSIvPjxlbGxpcHNlIGN4PSIzMDAuNzUiIGN5PSIxMTUxIiBmaWxsPSIjQUREMUIyIiByeD0iMTEiIHJ5PSIxMSIgc3R5bGU9InN0cm9rZTojMTgxODE4O3N0cm9rZS13aWR0aDoxLjA7Ii8+PHBhdGggZD0iTTMwNC4zNzUsMTE1NyBMMzA0LjM3NSwxMTU1LjI1IEwyOTkuMDYyNSwxMTU1LjI1IFEyOTkuMDYyNSwxMTU1LjI1IDI5OS4wNjI1LDExNTEuNjg3NSBMMzAzLjMxMjUsMTE1MS42ODc1IEwzMDMuMzEyNSwxMTQ5LjkzNzUgTDI5OS4wNjI1LDExNDkuOTM3NSBMMjk5LjA2MjUsMTE0Ny40Mzc1IEwzMDQuMzc1LDExNDcuNDM3NSBMMzA0LjM3NSwxMTQ1LjY4NzUgTDI5Ny4zMTI1LDExNDUuNjg3NSBRMjk3LjMxMjUsMTE0NS42ODc1IDI5Ny4zMTI1LDExNTcgTDMwNC4zNzUsMTE1NyBaICIgZmlsbD0iIzAwMDAwMCIvPjx0ZXh0IGZpbGw9IiMwMDAwMDAiIGZvbnQtZmFtaWx5PSJzYW5zLXNlcmlmIiBmb250LXNpemU9IjE0IiBsZW5ndGhBZGp1c3Q9InNwYWNpbmciIHRleHRMZW5ndGg9IjEwMCIgeD0iMzIxLjI1IiB5PSIxMTU2Ljc0MjIiPlJlY29tbWVuZGF0aW9uPC90ZXh0PjxsaW5lIHN0eWxlPSJzdHJva2U6IzE4MTgxODtzdHJva2Utd2lkdGg6MC41OyIgeDE9IjI1MSIgeDI9IjQ1OSIgeTE9IjExNjciIHkyPSIxMTY3Ii8+PHRleHQgZmlsbD0iIzAwMDAwMCIgZm9udC1mYW1pbHk9InNhbnMtc2VyaWYiIGZvbnQtc2l6ZT0iMTQiIGxlbmd0aEFkanVzdD0ic3BhY2luZyIgdGV4dExlbmd0aD0iMTYzIiB4PSIyNTYiIHk9IjExODQuMjM0NCI+cmVjb21tZW5kYXRpb25JZCBpbnQgUEs8L3RleHQ+PHRleHQgZmlsbD0iIzAwMDAwMCIgZm9udC1mYW1pbHk9InNhbnMtc2VyaWYiIGZvbnQtc2l6ZT0iMTQiIGxlbmd0aEFkanVzdD0ic3BhY2luZyIgdGV4dExlbmd0aD0iMTIwIiB4PSIyNTYiIHk9IjExOTkuMjE4OCI+Y3VzdG9tZXJJZCBpbnQgRks8L3RleHQ+PHRleHQgZmlsbD0iIzAwMDAwMCIgZm9udC1mYW1pbHk9InNhbnMtc2VyaWYiIGZvbnQtc2l6ZT0iMTQiIGxlbmd0aEFkanVzdD0ic3BhY2luZyIgdGV4dExlbmd0aD0iMTIxIiB4PSIyNTYiIHk9IjEyMTQuMjAzMSI+bWVudUl0ZW1JZCBpbnQgRks8L3RleHQ+PHRleHQgZmlsbD0iIzAwMDAwMCIgZm9udC1mYW1pbHk9InNhbnMtc2VyaWYiIGZvbnQtc2l6ZT0iMTQiIGxlbmd0aEFkanVzdD0ic3BhY2luZyIgdGV4dExlbmd0aD0iODQiIHg9IjI1NiIgeT0iMTIyOS4xODc1Ij5zY29yZSBkb3VibGU8L3RleHQ+PHRleHQgZmlsbD0iIzAwMDAwMCIgZm9udC1mYW1pbHk9InNhbnMtc2VyaWYiIGZvbnQtc2l6ZT0iMTQiIGxlbmd0aEFkanVzdD0ic3BhY2luZyIgdGV4dExlbmd0aD0iMTk4IiB4PSIyNTYiIHk9IjEyNDQuMTcxOSI+cmVjb21tZW5kYXRpb25Nb2RlbElkIGludCBGSzwvdGV4dD48bGluZSBzdHlsZT0ic3Ryb2tlOiMxODE4MTg7c3Ryb2tlLXdpZHRoOjAuNTsiIHgxPSIyNTEiIHgyPSI0NTkiIHkxPSIxMjQ5LjkyMTkiIHkyPSIxMjQ5LjkyMTkiLz48L2c+PCEtLWNsYXNzIFJlY29tbWVuZGF0aW9uTW9kZWwtLT48ZyBpZD0iZWxlbV9SZWNvbW1lbmRhdGlvbk1vZGVsIj48cmVjdCBjb2RlTGluZT0iMTczIiBmaWxsPSIjRjFGMUYxIiBoZWlnaHQ9IjEwNy45Mzc1IiBpZD0iUmVjb21tZW5kYXRpb25Nb2RlbCIgcng9IjIuNSIgcnk9IjIuNSIgc3R5bGU9InN0cm9rZTojMTgxODE4O3N0cm9rZS13aWR0aDowLjU7IiB3aWR0aD0iMTY3IiB4PSIyNzEuNSIgeT0iMTMzMyIvPjxlbGxpcHNlIGN4PSIyODYuNSIgY3k9IjEzNDkiIGZpbGw9IiNBREQxQjIiIHJ4PSIxMSIgcnk9IjExIiBzdHlsZT0ic3Ryb2tlOiMxODE4MTg7c3Ryb2tlLXdpZHRoOjEuMDsiLz48cGF0aCBkPSJNMjkwLjEyNSwxMzU1IEwyOTAuMTI1LDEzNTMuMjUgTDI4NC44MTI1LDEzNTMuMjUgUTI4NC44MTI1LDEzNTMuMjUgMjg0LjgxMjUsMTM0OS42ODc1IEwyODkuMDYyNSwxMzQ5LjY4NzUgTDI4OS4wNjI1LDEzNDcuOTM3NSBMMjg0LjgxMjUsMTM0Ny45Mzc1IEwyODQuODEyNSwxMzQ1LjQzNzUgTDI5MC4xMjUsMTM0NS40Mzc1IEwyOTAuMTI1LDEzNDMuNjg3NSBMMjgzLjA2MjUsMTM0My42ODc1IFEyODMuMDYyNSwxMzQzLjY4NzUgMjgzLjA2MjUsMTM1NSBMMjkwLjEyNSwxMzU1IFogIiBmaWxsPSIjMDAwMDAwIi8+PHRleHQgZmlsbD0iIzAwMDAwMCIgZm9udC1mYW1pbHk9InNhbnMtc2VyaWYiIGZvbnQtc2l6ZT0iMTQiIGxlbmd0aEFkanVzdD0ic3BhY2luZyIgdGV4dExlbmd0aD0iMTM1IiB4PSIzMDAuNSIgeT0iMTM1NC43NDIyIj5SZWNvbW1lbmRhdGlvbk1vZGVsPC90ZXh0PjxsaW5lIHN0eWxlPSJzdHJva2U6IzE4MTgxODtzdHJva2Utd2lkdGg6MC41OyIgeDE9IjI3Mi41IiB4Mj0iNDM3LjUiIHkxPSIxMzY1IiB5Mj0iMTM2NSIvPjx0ZXh0IGZpbGw9IiMwMDAwMDAiIGZvbnQtZmFtaWx5PSJzYW5zLXNlcmlmIiBmb250LXNpemU9IjE0IiBsZW5ndGhBZGp1c3Q9InNwYWNpbmciIHRleHRMZW5ndGg9Ijk5IiB4PSIyNzcuNSIgeT0iMTM4Mi4yMzQ0Ij5tb2RlbElkIGludCBQSzwvdGV4dD48dGV4dCBmaWxsPSIjMDAwMDAwIiBmb250LWZhbWlseT0ic2Fucy1zZXJpZiIgZm9udC1zaXplPSIxNCIgbGVuZ3RoQWRqdXN0PSJzcGFjaW5nIiB0ZXh0TGVuZ3RoPSIxMTQiIHg9IjI3Ny41IiB5PSIxMzk3LjIxODgiPm1vZGVsTmFtZSBTdHJpbmc8L3RleHQ+PHRleHQgZmlsbD0iIzAwMDAwMCIgZm9udC1mYW1pbHk9InNhbnMtc2VyaWYiIGZvbnQtc2l6ZT0iMTQiIGxlbmd0aEFkanVzdD0ic3BhY2luZyIgdGV4dExlbmd0aD0iMTM0IiB4PSIyNzcuNSIgeT0iMTQxMi4yMDMxIj5tb2RlbFZlcnNpb24gU3RyaW5nPC90ZXh0Pjx0ZXh0IGZpbGw9IiMwMDAwMDAiIGZvbnQtZmFtaWx5PSJzYW5zLXNlcmlmIiBmb250LXNpemU9IjE0IiBsZW5ndGhBZGp1c3Q9InNwYWNpbmciIHRleHRMZW5ndGg9IjExOSIgeD0iMjc3LjUiIHk9IjE0MjcuMTg3NSI+dHJhaW5pbmdEYXRlIERhdGU8L3RleHQ+PGxpbmUgc3R5bGU9InN0cm9rZTojMTgxODE4O3N0cm9rZS13aWR0aDowLjU7IiB4MT0iMjcyLjUiIHgyPSI0MzcuNSIgeTE9IjE0MzIuOTM3NSIgeTI9IjE0MzIuOTM3NSIvPjwvZz48IS0tY2xhc3MgUm9sZS0tPjxnIGlkPSJlbGVtX1JvbGUiPjxyZWN0IGNvZGVMaW5lPSIxODIiIGZpbGw9IiNGMUYxRjEiIGhlaWdodD0iNzcuOTY4OCIgaWQ9IlJvbGUiIHJ4PSIyLjUiIHJ5PSIyLjUiIHN0eWxlPSJzdHJva2U6IzE4MTgxODtzdHJva2Utd2lkdGg6MC41OyIgd2lkdGg9IjExOCIgeD0iMTUyNiIgeT0iMjIwIi8+PGVsbGlwc2UgY3g9IjE1NjcuMSIgY3k9IjIzNiIgZmlsbD0iI0FERDFCMiIgcng9IjExIiByeT0iMTEiIHN0eWxlPSJzdHJva2U6IzE4MTgxODtzdHJva2Utd2lkdGg6MS4wOyIvPjxwYXRoIGQ9Ik0xNTcwLjcyNSwyNDIgTDE1NzAuNzI1LDI0MC4yNSBMMTU2NS40MTI1LDI0MC4yNSBRMTU2NS40MTI1LDI0MC4yNSAxNTY1LjQxMjUsMjM2LjY4NzUgTDE1NjkuNjYyNSwyMzYuNjg3NSBMMTU2OS42NjI1LDIzNC45Mzc1IEwxNTY1LjQxMjUsMjM0LjkzNzUgTDE1NjUuNDEyNSwyMzIuNDM3NSBMMTU3MC43MjUsMjMyLjQzNzUgTDE1NzAuNzI1LDIzMC42ODc1IEwxNTYzLjY2MjUsMjMwLjY4NzUgUTE1NjMuNjYyNSwyMzAuNjg3NSAxNTYzLjY2MjUsMjQyIEwxNTcwLjcyNSwyNDIgWiAiIGZpbGw9IiMwMDAwMDAiLz48dGV4dCBmaWxsPSIjMDAwMDAwIiBmb250LWZhbWlseT0ic2Fucy1zZXJpZiIgZm9udC1zaXplPSIxNCIgbGVuZ3RoQWRqdXN0PSJzcGFjaW5nIiB0ZXh0TGVuZ3RoPSIyOCIgeD0iMTU4Ni45IiB5PSIyNDEuNzQyMiI+Um9sZTwvdGV4dD48bGluZSBzdHlsZT0ic3Ryb2tlOiMxODE4MTg7c3Ryb2tlLXdpZHRoOjAuNTsiIHgxPSIxNTI3IiB4Mj0iMTY0MyIgeTE9IjI1MiIgeTI9IjI1MiIvPjx0ZXh0IGZpbGw9IiMwMDAwMDAiIGZvbnQtZmFtaWx5PSJzYW5zLXNlcmlmIiBmb250LXNpemU9IjE0IiBsZW5ndGhBZGp1c3Q9InNwYWNpbmciIHRleHRMZW5ndGg9IjkxIiB4PSIxNTMyIiB5PSIyNjkuMjM0NCI+cm9sZUlkIGludCBQSzwvdGV4dD48dGV4dCBmaWxsPSIjMDAwMDAwIiBmb250LWZhbWlseT0ic2Fucy1zZXJpZiIgZm9udC1zaXplPSIxNCIgbGVuZ3RoQWRqdXN0PSJzcGFjaW5nIiB0ZXh0TGVuZ3RoPSIxMDYiIHg9IjE1MzIiIHk9IjI4NC4yMTg4Ij5yb2xlTmFtZSBTdHJpbmc8L3RleHQ+PGxpbmUgc3R5bGU9InN0cm9rZTojMTgxODE4O3N0cm9rZS13aWR0aDowLjU7IiB4MT0iMTUyNyIgeDI9IjE2NDMiIHkxPSIyODkuOTY4OCIgeTI9IjI4OS45Njg4Ii8+PC9nPjwhLS1jbGFzcyBQZXJtaXNzaW9uLS0+PGcgaWQ9ImVsZW1fUGVybWlzc2lvbiI+PHJlY3QgY29kZUxpbmU9IjE4NyIgZmlsbD0iI0YxRjFGMSIgaGVpZ2h0PSI3Ny45Njg4IiBpZD0iUGVybWlzc2lvbiIgcng9IjIuNSIgcnk9IjIuNSIgc3R5bGU9InN0cm9rZTojMTgxODE4O3N0cm9rZS13aWR0aDowLjU7IiB3aWR0aD0iMTYxIiB4PSIxNTcyLjUiIHk9IjQxOCIvPjxlbGxpcHNlIGN4PSIxNjEzLjYiIGN5PSI0MzQiIGZpbGw9IiNBREQxQjIiIHJ4PSIxMSIgcnk9IjExIiBzdHlsZT0ic3Ryb2tlOiMxODE4MTg7c3Ryb2tlLXdpZHRoOjEuMDsiLz48cGF0aCBkPSJNMTYxNy4yMjUsNDQwIEwxNjE3LjIyNSw0MzguMjUgTDE2MTEuOTEyNSw0MzguMjUgUTE2MTEuOTEyNSw0MzguMjUgMTYxMS45MTI1LDQzNC42ODc1IEwxNjE2LjE2MjUsNDM0LjY4NzUgTDE2MTYuMTYyNSw0MzIuOTM3NSBMMTYxMS45MTI1LDQzMi45Mzc1IEwxNjExLjkxMjUsNDMwLjQzNzUgTDE2MTcuMjI1LDQzMC40Mzc1IEwxNjE3LjIyNSw0MjguNjg3NSBMMTYxMC4xNjI1LDQyOC42ODc1IFExNjEwLjE2MjUsNDI4LjY4NzUgMTYxMC4xNjI1LDQ0MCBMMTYxNy4yMjUsNDQwIFogIiBmaWxsPSIjMDAwMDAwIi8+PHRleHQgZmlsbD0iIzAwMDAwMCIgZm9udC1mYW1pbHk9InNhbnMtc2VyaWYiIGZvbnQtc2l6ZT0iMTQiIGxlbmd0aEFkanVzdD0ic3BhY2luZyIgdGV4dExlbmd0aD0iNzEiIHg9IjE2MzMuNCIgeT0iNDM5Ljc0MjIiPlBlcm1pc3Npb248L3RleHQ+PGxpbmUgc3R5bGU9InN0cm9rZTojMTgxODE4O3N0cm9rZS13aWR0aDowLjU7IiB4MT0iMTU3My41IiB4Mj0iMTczMi41IiB5MT0iNDUwIiB5Mj0iNDUwIi8+PHRleHQgZmlsbD0iIzAwMDAwMCIgZm9udC1mYW1pbHk9InNhbnMtc2VyaWYiIGZvbnQtc2l6ZT0iMTQiIGxlbmd0aEFkanVzdD0ic3BhY2luZyIgdGV4dExlbmd0aD0iMTM0IiB4PSIxNTc4LjUiIHk9IjQ2Ny4yMzQ0Ij5wZXJtaXNzaW9uSWQgaW50IFBLPC90ZXh0Pjx0ZXh0IGZpbGw9IiMwMDAwMDAiIGZvbnQtZmFtaWx5PSJzYW5zLXNlcmlmIiBmb250LXNpemU9IjE0IiBsZW5ndGhBZGp1c3Q9InNwYWNpbmciIHRleHRMZW5ndGg9IjE0OSIgeD0iMTU3OC41IiB5PSI0ODIuMjE4OCI+cGVybWlzc2lvbk5hbWUgU3RyaW5nPC90ZXh0PjxsaW5lIHN0eWxlPSJzdHJva2U6IzE4MTgxODtzdHJva2Utd2lkdGg6MC41OyIgeDE9IjE1NzMuNSIgeDI9IjE3MzIuNSIgeTE9IjQ4Ny45Njg4IiB5Mj0iNDg3Ljk2ODgiLz48L2c+PCEtLXJldmVyc2UgbGluayBVc2VyIHRvIEN1c3RvbWVyLS0+PGcgaWQ9ImxpbmtfVXNlcl9DdXN0b21lciI+PHBhdGggY29kZUxpbmU9IjE5NSIgZD0iTTc0My4yMjMzLDE0My41NDU0IEM3MjEuNTczMywxNjcuNTQ1NCA3MDguOTcsMTgxLjUyIDY4OC4wMywyMDQuNzQgIiBmaWxsPSJub25lIiBpZD0iVXNlci1iYWNrdG8tQ3VzdG9tZXIiIHN0eWxlPSJzdHJva2U6IzE4MTgxODtzdHJva2Utd2lkdGg6MS4wOyIvPjxwb2x5Z29uIGZpbGw9Im5vbmUiIHBvaW50cz0iNzU1LjI4LDEzMC4xOCw3MzguNzY4MSwxMzkuNTI2NSw3NDcuNjc4NCwxNDcuNTY0NCw3NTUuMjgsMTMwLjE4IiBzdHlsZT0ic3Ryb2tlOiMxODE4MTg7c3Ryb2tlLXdpZHRoOjEuMDsiLz48L2c+PCEtLXJldmVyc2UgbGluayBVc2VyIHRvIEFkbWluLS0+PGcgaWQ9ImxpbmtfVXNlcl9BZG1pbiI+PHBhdGggY29kZUxpbmU9IjE5NiIgZD0iTTcxMC4zNDAzLDExNy43OTk4IEM2NTkuMjQwMywxNDMuMzQ5OCA2MDkuMjEsMTcwLjAzIDU1MywyMDUgQzU0NS41NSwyMDkuNjMgNTM3Ljg3LDIxNC43OCA1MzAuNDEsMjE5Ljk4ICIgZmlsbD0ibm9uZSIgaWQ9IlVzZXItYmFja3RvLUFkbWluIiBzdHlsZT0ic3Ryb2tlOiMxODE4MTg7c3Ryb2tlLXdpZHRoOjEuMDsiLz48cG9seWdvbiBmaWxsPSJub25lIiBwb2ludHM9IjcyNi40NCwxMDkuNzUsNzA3LjY1NywxMTIuNDMzMyw3MTMuMDIzNiwxMjMuMTY2NCw3MjYuNDQsMTA5Ljc1IiBzdHlsZT0ic3Ryb2tlOiMxODE4MTg7c3Ryb2tlLXdpZHRoOjEuMDsiLz48L2c+PCEtLXJldmVyc2UgbGluayBVc2VyIHRvIFN0YWZmLS0+PGcgaWQ9ImxpbmtfVXNlcl9TdGFmZiI+PHBhdGggY29kZUxpbmU9IjE5NyIgZD0iTTkxMC42NDkxLDEwNS4yOTIzIEMxMDIwLjAzOTEsMTQ0LjIwMjMgMTE5MS42NSwyMDUuMjQgMTI4NC43MywyMzguMzQgIiBmaWxsPSJub25lIiBpZD0iVXNlci1iYWNrdG8tU3RhZmYiIHN0eWxlPSJzdHJva2U6IzE4MTgxODtzdHJva2Utd2lkdGg6MS4wOyIvPjxwb2x5Z29uIGZpbGw9Im5vbmUiIHBvaW50cz0iODkzLjY5LDk5LjI2LDkwOC42MzgzLDExMC45NDU0LDkxMi42NTk5LDk5LjYzOTMsODkzLjY5LDk5LjI2IiBzdHlsZT0ic3Ryb2tlOiMxODE4MTg7c3Ryb2tlLXdpZHRoOjEuMDsiLz48L2c+PCEtLWxpbmsgUmVzdGF1cmFudCB0byBNZW51LS0+PGcgaWQ9ImxpbmtfUmVzdGF1cmFudF9NZW51Ij48cGF0aCBjb2RlTGluZT0iMjAwIiBkPSJNMTg4LjgyLDI5OC40MSBDMTg0LjYxLDMxMi4yOSAxODAuNDIsMzI4LjIgMTc4LDM0MyBDMTY1Ljk0LDQxNi44MSAxNjQuOTEsNTAzLjk2IDE2NS42Nyw1NTUuODcgIiBmaWxsPSJub25lIiBpZD0iUmVzdGF1cmFudC1NZW51IiBzdHlsZT0ic3Ryb2tlOiMxODE4MTg7c3Ryb2tlLXdpZHRoOjEuMDsiLz48dGV4dCBmaWxsPSIjMDAwMDAwIiBmb250LWZhbWlseT0ic2Fucy1zZXJpZiIgZm9udC1zaXplPSIxMyIgbGVuZ3RoQWRqdXN0PSJzcGFjaW5nIiB0ZXh0TGVuZ3RoPSI0OCIgeD0iMTc5IiB5PSIzNTYuMjg5MSI+bWFuYWdlczwvdGV4dD48dGV4dCBmaWxsPSIjMDAwMDAwIiBmb250LWZhbWlseT0ic2Fucy1zZXJpZiIgZm9udC1zaXplPSIxMyIgbGVuZ3RoQWRqdXN0PSJzcGFjaW5nIiB0ZXh0TGVuZ3RoPSI3IiB4PSIxNzkuMDU3NCIgeT0iMzE4LjM4MTIiPjE8L3RleHQ+PHRleHQgZmlsbD0iIzAwMDAwMCIgZm9udC1mYW1pbHk9InNhbnMtc2VyaWYiIGZvbnQtc2l6ZT0iMTMiIGxlbmd0aEFkanVzdD0ic3BhY2luZyIgdGV4dExlbmd0aD0iNiIgeD0iMTU4Ljk1MjgiIHk9IjU0Ni40MzkiPio8L3RleHQ+PC9nPjwhLS1saW5rIE1lbnUgdG8gTWVudUl0ZW0tLT48ZyBpZD0ibGlua19NZW51X01lbnVJdGVtIj48cGF0aCBjb2RlTGluZT0iMjAzIiBkPSJNMTc4LjExLDY0OS4wMSBDMTkxLjE0LDcwMi40MiAyMTMuMTIsNzkyLjQ5IDIzMC4wOCw4NjIgIiBmaWxsPSJub25lIiBpZD0iTWVudS1NZW51SXRlbSIgc3R5bGU9InN0cm9rZTojMTgxODE4O3N0cm9rZS13aWR0aDoxLjA7Ii8+PHRleHQgZmlsbD0iIzAwMDAwMCIgZm9udC1mYW1pbHk9InNhbnMtc2VyaWYiIGZvbnQtc2l6ZT0iMTMiIGxlbmd0aEFkanVzdD0ic3BhY2luZyIgdGV4dExlbmd0aD0iNTQiIHg9IjIxMiIgeT0iNzM4Ljc4OTEiPmNvbnRhaW5zPC90ZXh0Pjx0ZXh0IGZpbGw9IiMwMDAwMDAiIGZvbnQtZmFtaWx5PSJzYW5zLXNlcmlmIiBmb250LXNpemU9IjEzIiBsZW5ndGhBZGp1c3Q9InNwYWNpbmciIHRleHRMZW5ndGg9IjciIHg9IjE3Mi4yMjc3IiB5PSI2NjkuMTU1NSI+MTwvdGV4dD48dGV4dCBmaWxsPSIjMDAwMDAwIiBmb250LWZhbWlseT0ic2Fucy1zZXJpZiIgZm9udC1zaXplPSIxMyIgbGVuZ3RoQWRqdXN0PSJzcGFjaW5nIiB0ZXh0TGVuZ3RoPSI2IiB4PSIyMjEuNzY2NiIgeT0iODUyLjI2ODYiPio8L3RleHQ+PC9nPjwhLS1saW5rIEN1c3RvbWVyIHRvIE9yZGVyLS0+PGcgaWQ9ImxpbmtfQ3VzdG9tZXJfT3JkZXIiPjxwYXRoIGNvZGVMaW5lPSIyMDYiIGQ9Ik02OTAuMTMsMzEzLjI1IEM3MDcuMzEsMzI5LjI3IDcyNy40MSwzNDUuODEgNzQ4LDM1OCBDNzgzLjIsMzc4LjgzIDc5OC43MSwzNjkuMTQgODM1LDM4OCBDODQwLjgxLDM5MS4wMiA4NDYuNjYsMzk0LjM3IDg1Mi40NCwzOTcuOTEgIiBmaWxsPSJub25lIiBpZD0iQ3VzdG9tZXItT3JkZXIiIHN0eWxlPSJzdHJva2U6IzE4MTgxODtzdHJva2Utd2lkdGg6MS4wOyIvPjx0ZXh0IGZpbGw9IiMwMDAwMDAiIGZvbnQtZmFtaWx5PSJzYW5zLXNlcmlmIiBmb250LXNpemU9IjEzIiBsZW5ndGhBZGp1c3Q9InNwYWNpbmciIHRleHRMZW5ndGg9IjQxIiB4PSI3NDkiIHk9IjM1Ni4yODkxIj5wbGFjZXM8L3RleHQ+PHRleHQgZmlsbD0iIzAwMDAwMCIgZm9udC1mYW1pbHk9InNhbnMtc2VyaWYiIGZvbnQtc2l6ZT0iMTMiIGxlbmd0aEFkanVzdD0ic3BhY2luZyIgdGV4dExlbmd0aD0iNyIgeD0iNjg5LjEwNDUiIHk9IjMzMy4zODUyIj4xPC90ZXh0Pjx0ZXh0IGZpbGw9IiMwMDAwMDAiIGZvbnQtZmFtaWx5PSJzYW5zLXNlcmlmIiBmb250LXNpemU9IjEzIiBsZW5ndGhBZGp1c3Q9InNwYWNpbmciIHRleHRMZW5ndGg9IjYiIHg9IjgzOC42MDgzIiB5PSIzOTAuNzkyMiI+KjwvdGV4dD48L2c+PCEtLWxpbmsgT3JkZXIgdG8gUGF5bWVudC0tPjxnIGlkPSJsaW5rX09yZGVyX1BheW1lbnQiPjxwYXRoIGNvZGVMaW5lPSIyMDciIGQ9Ik05MzEuNyw1MjYuMTEgQzkzNC43MSw1NjMuMiA5NDAuOTgsNjA5LjQ1IDk1NCw2NDkgQzk1Ny4zLDY1OS4wMSA5NjEuODIsNjY5LjIxIDk2Ni43NSw2NzguODcgIiBmaWxsPSJub25lIiBpZD0iT3JkZXItUGF5bWVudCIgc3R5bGU9InN0cm9rZTojMTgxODE4O3N0cm9rZS13aWR0aDoxLjA7Ii8+PHRleHQgZmlsbD0iIzAwMDAwMCIgZm9udC1mYW1pbHk9InNhbnMtc2VyaWYiIGZvbnQtc2l6ZT0iMTMiIGxlbmd0aEFkanVzdD0ic3BhY2luZyIgdGV4dExlbmd0aD0iMjEiIHg9Ijk1NSIgeT0iNjA4LjI4OTEiPmhhczwvdGV4dD48dGV4dCBmaWxsPSIjMDAwMDAwIiBmb250LWZhbWlseT0ic2Fucy1zZXJpZiIgZm9udC1zaXplPSIxMyIgbGVuZ3RoQWRqdXN0PSJzcGFjaW5nIiB0ZXh0TGVuZ3RoPSI3IiB4PSI5MjQuNjE3NSIgeT0iNTQ2LjI0ODMiPjE8L3RleHQ+PHRleHQgZmlsbD0iIzAwMDAwMCIgZm9udC1mYW1pbHk9InNhbnMtc2VyaWYiIGZvbnQtc2l6ZT0iMTMiIGxlbmd0aEFkanVzdD0ic3BhY2luZyIgdGV4dExlbmd0aD0iNyIgeD0iOTU0LjM1MjMiIHk9IjY2OS4zMjU3Ij4xPC90ZXh0PjwvZz48IS0tbGluayBQYXltZW50IHRvIFBheW1lbnRNZXRob2QtLT48ZyBpZD0ibGlua19QYXltZW50X1BheW1lbnRNZXRob2QiPjxwYXRoIGNvZGVMaW5lPSIyMDgiIGQ9Ik0xMDAwLDc4Ny4yNyBDMTAwMCw4MjguNjQgMTAwMCw4ODUgMTAwMCw5MjEuOTIgIiBmaWxsPSJub25lIiBpZD0iUGF5bWVudC1QYXltZW50TWV0aG9kIiBzdHlsZT0ic3Ryb2tlOiMxODE4MTg7c3Ryb2tlLXdpZHRoOjEuMDsiLz48dGV4dCBmaWxsPSIjMDAwMDAwIiBmb250LWZhbWlseT0ic2Fucy1zZXJpZiIgZm9udC1zaXplPSIxMyIgbGVuZ3RoQWRqdXN0PSJzcGFjaW5nIiB0ZXh0TGVuZ3RoPSIyOCIgeD0iMTAwMSIgeT0iODMwLjI4OTEiPnVzZXM8L3RleHQ+PHRleHQgZmlsbD0iIzAwMDAwMCIgZm9udC1mYW1pbHk9InNhbnMtc2VyaWYiIGZvbnQtc2l6ZT0iMTMiIGxlbmd0aEFkanVzdD0ic3BhY2luZyIgdGV4dExlbmd0aD0iNyIgeD0iOTkyLjU1MTYiIHk9IjgwNy40MDc4Ij4xPC90ZXh0Pjx0ZXh0IGZpbGw9IiMwMDAwMDAiIGZvbnQtZmFtaWx5PSJzYW5zLXNlcmlmIiBmb250LXNpemU9IjEzIiBsZW5ndGhBZGp1c3Q9InNwYWNpbmciIHRleHRMZW5ndGg9IjciIHg9Ijk5Mi4zMTA5IiB5PSI5MTIuMzI4NiI+MTwvdGV4dD48L2c+PCEtLWxpbmsgQ3VzdG9tZXIgdG8gQ3VzdG9tZXJQcm9maWxlLS0+PGcgaWQ9ImxpbmtfQ3VzdG9tZXJfQ3VzdG9tZXJQcm9maWxlIj48cGF0aCBjb2RlTGluZT0iMjExIiBkPSJNNjA5LjE1LDMxMy4wNCBDNTk0LjM4LDMzOC40NCA1NzYuNjIsMzY4Ljk3IDU2MS4zMSwzOTUuMjkgIiBmaWxsPSJub25lIiBpZD0iQ3VzdG9tZXItQ3VzdG9tZXJQcm9maWxlIiBzdHlsZT0ic3Ryb2tlOiMxODE4MTg7c3Ryb2tlLXdpZHRoOjEuMDsiLz48dGV4dCBmaWxsPSIjMDAwMDAwIiBmb250LWZhbWlseT0ic2Fucy1zZXJpZiIgZm9udC1zaXplPSIxMyIgbGVuZ3RoQWRqdXN0PSJzcGFjaW5nIiB0ZXh0TGVuZ3RoPSIyMSIgeD0iNTkxIiB5PSIzNTYuMjg5MSI+aGFzPC90ZXh0Pjx0ZXh0IGZpbGw9IiMwMDAwMDAiIGZvbnQtZmFtaWx5PSJzYW5zLXNlcmlmIiBmb250LXNpemU9IjEzIiBsZW5ndGhBZGp1c3Q9InNwYWNpbmciIHRleHRMZW5ndGg9IjciIHg9IjU5Ny43NDg5IiB5PSIzMzMuMTQ4MyI+MTwvdGV4dD48dGV4dCBmaWxsPSIjMDAwMDAwIiBmb250LWZhbWlseT0ic2Fucy1zZXJpZiIgZm9udC1zaXplPSIxMyIgbGVuZ3RoQWRqdXN0PSJzcGFjaW5nIiB0ZXh0TGVuZ3RoPSI3IiB4PSI1NTguMzg1NyIgeT0iMzg1LjkwMzIiPjE8L3RleHQ+PC9nPjwhLS1saW5rIEN1c3RvbWVyIHRvIE5vdGlmaWNhdGlvbi0tPjxnIGlkPSJsaW5rX0N1c3RvbWVyX05vdGlmaWNhdGlvbiI+PHBhdGggY29kZUxpbmU9IjIxNCIgZD0iTTY0MC44NSwzMTMuMTIgQzY0Mi40NCwzMjguMDMgNjQ1LjQ3LDM0My45OSA2NTEsMzU4IEM2NTYuMSwzNzAuOTMgNjYzLjM3LDM4My42NSA2NzEuMzcsMzk1LjQ0ICIgZmlsbD0ibm9uZSIgaWQ9IkN1c3RvbWVyLU5vdGlmaWNhdGlvbiIgc3R5bGU9InN0cm9rZTojMTgxODE4O3N0cm9rZS13aWR0aDoxLjA7Ii8+PHRleHQgZmlsbD0iIzAwMDAwMCIgZm9udC1mYW1pbHk9InNhbnMtc2VyaWYiIGZvbnQtc2l6ZT0iMTMiIGxlbmd0aEFkanVzdD0ic3BhY2luZyIgdGV4dExlbmd0aD0iNTUiIHg9IjY1MiIgeT0iMzU2LjI4OTEiPnJlY2VpdmVzPC90ZXh0Pjx0ZXh0IGZpbGw9IiMwMDAwMDAiIGZvbnQtZmFtaWx5PSJzYW5zLXNlcmlmIiBmb250LXNpemU9IjEzIiBsZW5ndGhBZGp1c3Q9InNwYWNpbmciIHRleHRMZW5ndGg9IjciIHg9IjYzMy41MTA1IiB5PSIzMzMuMjM4NiI+MTwvdGV4dD48dGV4dCBmaWxsPSIjMDAwMDAwIiBmb250LWZhbWlseT0ic2Fucy1zZXJpZiIgZm9udC1zaXplPSIxMyIgbGVuZ3RoQWRqdXN0PSJzcGFjaW5nIiB0ZXh0TGVuZ3RoPSI2IiB4PSI2NTguMjQyNCIgeT0iMzg2LjA3MjQiPio8L3RleHQ+PC9nPjwhLS1saW5rIE5vdGlmaWNhdGlvblR5cGUgdG8gTm90aWZpY2F0aW9uLS0+PGcgaWQ9ImxpbmtfTm90aWZpY2F0aW9uVHlwZV9Ob3RpZmljYXRpb24iPjxwYXRoIGNvZGVMaW5lPSIyMTUiIGQ9Ik04MjUuNTEsMjk4LjM1IEM4MTguNzgsMzE2LjkyIDgwOS42NiwzMzkuMjEgNzk5LDM1OCBDNzkxLjg2LDM3MC41OCA3ODMuMjgsMzgzLjM0IDc3NC41LDM5NS4zMSAiIGZpbGw9Im5vbmUiIGlkPSJOb3RpZmljYXRpb25UeXBlLU5vdGlmaWNhdGlvbiIgc3R5bGU9InN0cm9rZTojMTgxODE4O3N0cm9rZS13aWR0aDoxLjA7Ii8+PHRleHQgZmlsbD0iIzAwMDAwMCIgZm9udC1mYW1pbHk9InNhbnMtc2VyaWYiIGZvbnQtc2l6ZT0iMTMiIGxlbmd0aEFkanVzdD0ic3BhY2luZyIgdGV4dExlbmd0aD0iMjEiIHg9IjgwNyIgeT0iMzU2LjI4OTEiPmhhczwvdGV4dD48dGV4dCBmaWxsPSIjMDAwMDAwIiBmb250LWZhbWlseT0ic2Fucy1zZXJpZiIgZm9udC1zaXplPSIxMyIgbGVuZ3RoQWRqdXN0PSJzcGFjaW5nIiB0ZXh0TGVuZ3RoPSI3IiB4PSI4MTUuODYxNyIgeT0iMzE4LjMxMTMiPjE8L3RleHQ+PHRleHQgZmlsbD0iIzAwMDAwMCIgZm9udC1mYW1pbHk9InNhbnMtc2VyaWYiIGZvbnQtc2l6ZT0iMTMiIGxlbmd0aEFkanVzdD0ic3BhY2luZyIgdGV4dExlbmd0aD0iNiIgeD0iNzc0LjU4NTkiIHk9IjM4NS45MjU4Ij4qPC90ZXh0PjwvZz48IS0tbGluayBDdXN0b21lciB0byBSZXZpZXctLT48ZyBpZD0ibGlua19DdXN0b21lcl9SZXZpZXciPjxwYXRoIGNvZGVMaW5lPSIyMTgiIGQ9Ik01NzAuNDcsMzA1LjY1IEM1NjQuNjksMzA4LjQyIDU1OC44MywzMTAuOTIgNTUzLDMxMyBDNDYxLjcxLDM0NS41NiA0MTYuMjMsMjg3LjE3IDMzNywzNDMgQzMyMS4yNiwzNTQuMDkgMzA5LjQsMzcwLjY5IDMwMC42MSwzODcuNzggIiBmaWxsPSJub25lIiBpZD0iQ3VzdG9tZXItUmV2aWV3IiBzdHlsZT0ic3Ryb2tlOiMxODE4MTg7c3Ryb2tlLXdpZHRoOjEuMDsiLz48dGV4dCBmaWxsPSIjMDAwMDAwIiBmb250LWZhbWlseT0ic2Fucy1zZXJpZiIgZm9udC1zaXplPSIxMyIgbGVuZ3RoQWRqdXN0PSJzcGFjaW5nIiB0ZXh0TGVuZ3RoPSIzOSIgeD0iMzM4IiB5PSIzNTYuMjg5MSI+d3JpdGVzPC90ZXh0Pjx0ZXh0IGZpbGw9IiMwMDAwMDAiIGZvbnQtZmFtaWx5PSJzYW5zLXNlcmlmIiBmb250LXNpemU9IjEzIiBsZW5ndGhBZGp1c3Q9InNwYWNpbmciIHRleHRMZW5ndGg9IjciIHg9IjU1NS40ODIzIiB5PSIzMjMuODA1NyI+MTwvdGV4dD48dGV4dCBmaWxsPSIjMDAwMDAwIiBmb250LWZhbWlseT0ic2Fucy1zZXJpZiIgZm9udC1zaXplPSIxMyIgbGVuZ3RoQWRqdXN0PSJzcGFjaW5nIiB0ZXh0TGVuZ3RoPSI2IiB4PSIyOTYuODc3NCIgeT0iMzc4LjM3MjIiPio8L3RleHQ+PC9nPjwhLS1saW5rIFJlc3RhdXJhbnQgdG8gUmV2aWV3LS0+PGcgaWQ9ImxpbmtfUmVzdGF1cmFudF9SZXZpZXciPjxwYXRoIGNvZGVMaW5lPSIyMTkiIGQ9Ik0yMTYuODMsMjk4LjI2IEMyMjYuNjgsMzIzLjY2IDIzOS44OSwzNTcuNzIgMjUxLjUxLDM4Ny42OSAiIGZpbGw9Im5vbmUiIGlkPSJSZXN0YXVyYW50LVJldmlldyIgc3R5bGU9InN0cm9rZTojMTgxODE4O3N0cm9rZS13aWR0aDoxLjA7Ii8+PHRleHQgZmlsbD0iIzAwMDAwMCIgZm9udC1mYW1pbHk9InNhbnMtc2VyaWYiIGZvbnQtc2l6ZT0iMTMiIGxlbmd0aEFkanVzdD0ic3BhY2luZyIgdGV4dExlbmd0aD0iMjEiIHg9IjI0MSIgeT0iMzU2LjI4OTEiPmhhczwvdGV4dD48dGV4dCBmaWxsPSIjMDAwMDAwIiBmb250LWZhbWlseT0ic2Fucy1zZXJpZiIgZm9udC1zaXplPSIxMyIgbGVuZ3RoQWRqdXN0PSJzcGFjaW5nIiB0ZXh0TGVuZ3RoPSI3IiB4PSIyMTEuNzA2NSIgeT0iMzE4LjIwNjMiPjE8L3RleHQ+PHRleHQgZmlsbD0iIzAwMDAwMCIgZm9udC1mYW1pbHk9InNhbnMtc2VyaWYiIGZvbnQtc2l6ZT0iMTMiIGxlbmd0aEFkanVzdD0ic3BhY2luZyIgdGV4dExlbmd0aD0iNiIgeD0iMjQyLjEwMDIiIHk9IjM3OC4yNzE4Ij4qPC90ZXh0PjwvZz48IS0tbGluayBNZW51SXRlbSB0byBJbmdyZWRpZW50LS0+PGcgaWQ9ImxpbmtfTWVudUl0ZW1fSW5ncmVkaWVudCI+PHBhdGggY29kZUxpbmU9IjIyMiIgZD0iTTE3MC44MSwxMDIwLjI0IEMxNDguMDEsMTAzOS45NiAxMjUuMzcsMTA2My43MyAxMTAsMTA5MCBDOTguMDcsMTExMC4zOSA5Mi4zMSwxMTM2LjI2IDg5LjU0LDExNTcuMjkgIiBmaWxsPSJub25lIiBpZD0iTWVudUl0ZW0tSW5ncmVkaWVudCIgc3R5bGU9InN0cm9rZTojMTgxODE4O3N0cm9rZS13aWR0aDoxLjA7Ii8+PHRleHQgZmlsbD0iIzAwMDAwMCIgZm9udC1mYW1pbHk9InNhbnMtc2VyaWYiIGZvbnQtc2l6ZT0iMTMiIGxlbmd0aEFkanVzdD0ic3BhY2luZyIgdGV4dExlbmd0aD0iMTc1IiB4PSIxMTEiIHk9IjExMDMuMjg5MSI+dGhyb3VnaCBNZW51SXRlbUluZ3JlZGllbnQ8L3RleHQ+PHRleHQgZmlsbD0iIzAwMDAwMCIgZm9udC1mYW1pbHk9InNhbnMtc2VyaWYiIGZvbnQtc2l6ZT0iMTMiIGxlbmd0aEFkanVzdD0ic3BhY2luZyIgdGV4dExlbmd0aD0iNiIgeD0iMTU3LjEzMzciIHk9IjEwMjQuMjczOSI+KjwvdGV4dD48dGV4dCBmaWxsPSIjMDAwMDAwIiBmb250LWZhbWlseT0ic2Fucy1zZXJpZiIgZm9udC1zaXplPSIxMyIgbGVuZ3RoQWRqdXN0PSJzcGFjaW5nIiB0ZXh0TGVuZ3RoPSI2IiB4PSI4My40NTIzIiB5PSIxMTQ3Ljk1NTciPio8L3RleHQ+PC9nPjwhLS1saW5rIE9yZGVyIHRvIE9yZGVySXRlbS0tPjxnIGlkPSJsaW5rX09yZGVyX09yZGVySXRlbSI+PHBhdGggY29kZUxpbmU9IjIyNSIgZD0iTTg4Mi41NCw1MjYuMDggQzg1MC4zLDU3My4zMSA4MDcuOTgsNjM1LjMyIDc3OC4yNCw2NzguOSAiIGZpbGw9Im5vbmUiIGlkPSJPcmRlci1PcmRlckl0ZW0iIHN0eWxlPSJzdHJva2U6IzE4MTgxODtzdHJva2Utd2lkdGg6MS4wOyIvPjx0ZXh0IGZpbGw9IiMwMDAwMDAiIGZvbnQtZmFtaWx5PSJzYW5zLXNlcmlmIiBmb250LXNpemU9IjEzIiBsZW5ndGhBZGp1c3Q9InNwYWNpbmciIHRleHRMZW5ndGg9IjU0IiB4PSI4NTkiIHk9IjYwOC4yODkxIj5jb250YWluczwvdGV4dD48dGV4dCBmaWxsPSIjMDAwMDAwIiBmb250LWZhbWlseT0ic2Fucy1zZXJpZiIgZm9udC1zaXplPSIxMyIgbGVuZ3RoQWRqdXN0PSJzcGFjaW5nIiB0ZXh0TGVuZ3RoPSI3IiB4PSI4NzAuMzg3OSIgeT0iNTQ2LjIxNTIiPjE8L3RleHQ+PHRleHQgZmlsbD0iIzAwMDAwMCIgZm9udC1mYW1pbHk9InNhbnMtc2VyaWYiIGZvbnQtc2l6ZT0iMTMiIGxlbmd0aEFkanVzdD0ic3BhY2luZyIgdGV4dExlbmd0aD0iNiIgeD0iNzc3LjEyMjEiIHk9IjY2OS4zNjAyIj4qPC90ZXh0PjwvZz48IS0tbGluayBPcmRlckl0ZW0gdG8gTWVudUl0ZW0tLT48ZyBpZD0ibGlua19PcmRlckl0ZW1fTWVudUl0ZW0iPjxwYXRoIGNvZGVMaW5lPSIyMjYiIGQ9Ik02NzIuMzQsNzY2LjI2IEM1ODMuOTksODA3LjE4IDQzMS44LDg3Ny42NiAzMzcuMzcsOTIxLjM5ICIgZmlsbD0ibm9uZSIgaWQ9Ik9yZGVySXRlbS1NZW51SXRlbSIgc3R5bGU9InN0cm9rZTojMTgxODE4O3N0cm9rZS13aWR0aDoxLjA7Ii8+PHRleHQgZmlsbD0iIzAwMDAwMCIgZm9udC1mYW1pbHk9InNhbnMtc2VyaWYiIGZvbnQtc2l6ZT0iMTMiIGxlbmd0aEFkanVzdD0ic3BhY2luZyIgdGV4dExlbmd0aD0iNjgiIHg9IjU1OCIgeT0iODMwLjI4OTEiPmJlbG9uZ3MgdG88L3RleHQ+PHRleHQgZmlsbD0iIzAwMDAwMCIgZm9udC1mYW1pbHk9InNhbnMtc2VyaWYiIGZvbnQtc2l6ZT0iMTMiIGxlbmd0aEFkanVzdD0ic3BhY2luZyIgdGV4dExlbmd0aD0iNyIgeD0iNjU3LjMzODEiIHk9Ijc2OC41MjkzIj4xPC90ZXh0Pjx0ZXh0IGZpbGw9IiMwMDAwMDAiIGZvbnQtZmFtaWx5PSJzYW5zLXNlcmlmIiBmb250LXNpemU9IjEzIiBsZW5ndGhBZGp1c3Q9InNwYWNpbmciIHRleHRMZW5ndGg9IjciIHg9IjM0NS4xMDY5IiB5PSI5MTYuNjIwMSI+MTwvdGV4dD48L2c+PCEtLWxpbmsgQ291cG9uIHRvIENvdXBvblVzYWdlLS0+PGcgaWQ9ImxpbmtfQ291cG9uX0NvdXBvblVzYWdlIj48cGF0aCBjb2RlTGluZT0iMjI5IiBkPSJNMTIyNS4wMSw1MTguODEgQzEyMjAuMjgsNTY2Ljc0IDEyMTMuNzYsNjMyLjkxIDEyMDkuMjUsNjc4Ljc2ICIgZmlsbD0ibm9uZSIgaWQ9IkNvdXBvbi1Db3Vwb25Vc2FnZSIgc3R5bGU9InN0cm9rZTojMTgxODE4O3N0cm9rZS13aWR0aDoxLjA7Ii8+PHRleHQgZmlsbD0iIzAwMDAwMCIgZm9udC1mYW1pbHk9InNhbnMtc2VyaWYiIGZvbnQtc2l6ZT0iMTMiIGxlbmd0aEFkanVzdD0ic3BhY2luZyIgdGV4dExlbmd0aD0iNDgiIHg9IjEyMjIiIHk9IjYwOC4yODkxIj51c2VkIGluPC90ZXh0Pjx0ZXh0IGZpbGw9IiMwMDAwMDAiIGZvbnQtZmFtaWx5PSJzYW5zLXNlcmlmIiBmb250LXNpemU9IjEzIiBsZW5ndGhBZGp1c3Q9InNwYWNpbmciIHRleHRMZW5ndGg9IjciIHg9IjEyMTYuOTcyIiB5PSI1MzguNjI0NyI+MTwvdGV4dD48dGV4dCBmaWxsPSIjMDAwMDAwIiBmb250LWZhbWlseT0ic2Fucy1zZXJpZiIgZm9udC1zaXplPSIxMyIgbGVuZ3RoQWRqdXN0PSJzcGFjaW5nIiB0ZXh0TGVuZ3RoPSI2IiB4PSIxMjAzLjU4MDUiIHk9IjY2OS4xOTk2Ij4qPC90ZXh0PjwvZz48IS0tbGluayBPcmRlciB0byBDb3Vwb25Vc2FnZS0tPjxnIGlkPSJsaW5rX09yZGVyX0NvdXBvblVzYWdlIj48cGF0aCBjb2RlTGluZT0iMjMwIiBkPSJNOTk3LjMzLDUyNi4wOCBDMTA0NC43Myw1NzMuMzEgMTEwNi45Nyw2MzUuMzIgMTE1MC43MSw2NzguOSAiIGZpbGw9Im5vbmUiIGlkPSJPcmRlci1Db3Vwb25Vc2FnZSIgc3R5bGU9InN0cm9rZTojMTgxODE4O3N0cm9rZS13aWR0aDoxLjA7Ii8+PHRleHQgZmlsbD0iIzAwMDAwMCIgZm9udC1mYW1pbHk9InNhbnMtc2VyaWYiIGZvbnQtc2l6ZT0iMTMiIGxlbmd0aEFkanVzdD0ic3BhY2luZyIgdGV4dExlbmd0aD0iMjEiIHg9IjExMTciIHk9IjYwOC4yODkxIj5oYXM8L3RleHQ+PHRleHQgZmlsbD0iIzAwMDAwMCIgZm9udC1mYW1pbHk9InNhbnMtc2VyaWYiIGZvbnQtc2l6ZT0iMTMiIGxlbmd0aEFkanVzdD0ic3BhY2luZyIgdGV4dExlbmd0aD0iNyIgeD0iOTk3LjAxNTYiIHk9IjU0Ni4yMTUyIj4xPC90ZXh0Pjx0ZXh0IGZpbGw9IiMwMDAwMDAiIGZvbnQtZmFtaWx5PSJzYW5zLXNlcmlmIiBmb250LXNpemU9IjEzIiBsZW5ndGhBZGp1c3Q9InNwYWNpbmciIHRleHRMZW5ndGg9IjYiIHg9IjExMzYuNDQyNCIgeT0iNjY5LjM2MDIiPio8L3RleHQ+PC9nPjwhLS1saW5rIFN0YWZmIHRvIFJlc3RhdXJhbnRCcmFuY2gtLT48ZyBpZD0ibGlua19TdGFmZl9SZXN0YXVyYW50QnJhbmNoIj48cGF0aCBjb2RlTGluZT0iMjMzIiBkPSJNMTM2MC44OCwyOTguMjYgQzEzNzcuMTIsMzI4IDEzOTkuODQsMzY5LjYyIDE0MTcuODcsNDAyLjY0ICIgZmlsbD0ibm9uZSIgaWQ9IlN0YWZmLVJlc3RhdXJhbnRCcmFuY2giIHN0eWxlPSJzdHJva2U6IzE4MTgxODtzdHJva2Utd2lkdGg6MS4wOyIvPjx0ZXh0IGZpbGw9IiMwMDAwMDAiIGZvbnQtZmFtaWx5PSJzYW5zLXNlcmlmIiBmb250LXNpemU9IjEzIiBsZW5ndGhBZGp1c3Q9InNwYWNpbmciIHRleHRMZW5ndGg9IjU0IiB4PSIxMzk1IiB5PSIzNTYuMjg5MSI+d29ya3MgYXQ8L3RleHQ+PHRleHQgZmlsbD0iIzAwMDAwMCIgZm9udC1mYW1pbHk9InNhbnMtc2VyaWYiIGZvbnQtc2l6ZT0iMTMiIGxlbmd0aEFkanVzdD0ic3BhY2luZyIgdGV4dExlbmd0aD0iNyIgeD0iMTM1Ni43NTg2IiB5PSIzMTguMjA2MyI+MTwvdGV4dD48dGV4dCBmaWxsPSIjMDAwMDAwIiBmb250LWZhbWlseT0ic2Fucy1zZXJpZiIgZm9udC1zaXplPSIxMyIgbGVuZ3RoQWRqdXN0PSJzcGFjaW5nIiB0ZXh0TGVuZ3RoPSI2IiB4PSIxNDA3LjM1MTciIHk9IjM5My40MzkzIj4qPC90ZXh0PjwvZz48IS0tbGluayBTeXN0ZW1Mb2cgdG8gT3JkZXItLT48ZyBpZD0ibGlua19TeXN0ZW1Mb2dfT3JkZXIiPjxwYXRoIGNvZGVMaW5lPSIyMzYiIGQ9Ik0xMDE1LjA3LDMxMy4wNCBDMTAwMS4yMSwzMzYuMDUgOTg0LjgxLDM2My4yOSA5NzAuMDcsMzg3Ljc5ICIgZmlsbD0ibm9uZSIgaWQ9IlN5c3RlbUxvZy1PcmRlciIgc3R5bGU9InN0cm9rZTojMTgxODE4O3N0cm9rZS13aWR0aDoxLjA7Ii8+PHRleHQgZmlsbD0iIzAwMDAwMCIgZm9udC1mYW1pbHk9InNhbnMtc2VyaWYiIGZvbnQtc2l6ZT0iMTMiIGxlbmd0aEFkanVzdD0ic3BhY2luZyIgdGV4dExlbmd0aD0iMjciIHg9Ijk5NyIgeT0iMzU2LjI4OTEiPmxvZ3M8L3RleHQ+PHRleHQgZmlsbD0iIzAwMDAwMCIgZm9udC1mYW1pbHk9InNhbnMtc2VyaWYiIGZvbnQtc2l6ZT0iMTMiIGxlbmd0aEFkanVzdD0ic3BhY2luZyIgdGV4dExlbmd0aD0iNyIgeD0iMTAwMy41MzA1IiB5PSIzMzMuMTQ4MyI+MTwvdGV4dD48dGV4dCBmaWxsPSIjMDAwMDAwIiBmb250LWZhbWlseT0ic2Fucy1zZXJpZiIgZm9udC1zaXplPSIxMyIgbGVuZ3RoQWRqdXN0PSJzcGFjaW5nIiB0ZXh0TGVuZ3RoPSI2IiB4PSI5NjguNDcxOCIgeT0iMzc4LjM4MzQiPio8L3RleHQ+PC9nPjwhLS1saW5rIFN5c3RlbUxvZyB0byBQYXltZW50LS0+PGcgaWQ9ImxpbmtfU3lzdGVtTG9nX1BheW1lbnQiPjxwYXRoIGNvZGVMaW5lPSIyMzciIGQ9Ik0xMDU3LjkxLDMxMy4yNyBDMTA3MS4zMSwzODkuNDkgMTA4OC4zNCw1MzMuMjUgMTA1NCw2NDkgQzEwNTAuOTcsNjU5LjIyIDEwNDYuMjQsNjY5LjM2IDEwNDAuODEsNjc4Ljg1ICIgZmlsbD0ibm9uZSIgaWQ9IlN5c3RlbUxvZy1QYXltZW50IiBzdHlsZT0ic3Ryb2tlOiMxODE4MTg7c3Ryb2tlLXdpZHRoOjEuMDsiLz48dGV4dCBmaWxsPSIjMDAwMDAwIiBmb250LWZhbWlseT0ic2Fucy1zZXJpZiIgZm9udC1zaXplPSIxMyIgbGVuZ3RoQWRqdXN0PSJzcGFjaW5nIiB0ZXh0TGVuZ3RoPSIyNyIgeD0iMTA3NiIgeT0iNDYyLjc4OTEiPmxvZ3M8L3RleHQ+PHRleHQgZmlsbD0iIzAwMDAwMCIgZm9udC1mYW1pbHk9InNhbnMtc2VyaWYiIGZvbnQtc2l6ZT0iMTMiIGxlbmd0aEFkanVzdD0ic3BhY2luZyIgdGV4dExlbmd0aD0iNyIgeD0iMTA1MS44NTk0IiB5PSIzMzMuNDA3OCI+MTwvdGV4dD48dGV4dCBmaWxsPSIjMDAwMDAwIiBmb250LWZhbWlseT0ic2Fucy1zZXJpZiIgZm9udC1zaXplPSIxMyIgbGVuZ3RoQWRqdXN0PSJzcGFjaW5nIiB0ZXh0TGVuZ3RoPSI2IiB4PSIxMDQwLjM2MzMiIHk9IjY2OS4zMDI4Ij4qPC90ZXh0PjwvZz48IS0tbGluayBDdXN0b21lciB0byBSZWNvbW1lbmRhdGlvbi0tPjxnIGlkPSJsaW5rX0N1c3RvbWVyX1JlY29tbWVuZGF0aW9uIj48cGF0aCBjb2RlTGluZT0iMjQwIiBkPSJNNTcwLjMzLDMwMy4xNiBDNTE0LjM5LDMzOC4wMSA0NDQuMzEsMzgyLjE4IDQzOSwzODggQzQxNi4wOSw0MTMuMTEgNDA0LDQyMi4wMSA0MDQsNDU2IEM0MDQsNDU2IDQwNCw0NTYgNDA0LDk2MiBDNDA0LDEwMjEuNjUgMzg4LjUsMTA4OC4wNyAzNzQuOTMsMTEzNC43OCAiIGZpbGw9Im5vbmUiIGlkPSJDdXN0b21lci1SZWNvbW1lbmRhdGlvbiIgc3R5bGU9InN0cm9rZTojMTgxODE4O3N0cm9rZS13aWR0aDoxLjA7Ii8+PHRleHQgZmlsbD0iIzAwMDAwMCIgZm9udC1mYW1pbHk9InNhbnMtc2VyaWYiIGZvbnQtc2l6ZT0iMTMiIGxlbmd0aEFkanVzdD0ic3BhY2luZyIgdGV4dExlbmd0aD0iNTUiIHg9IjQwNSIgeT0iNzM4Ljc4OTEiPnJlY2VpdmVzPC90ZXh0Pjx0ZXh0IGZpbGw9IiMwMDAwMDAiIGZvbnQtZmFtaWx5PSJzYW5zLXNlcmlmIiBmb250LXNpemU9IjEzIiBsZW5ndGhBZGp1c3Q9InNwYWNpbmciIHRleHRMZW5ndGg9IjciIHg9IjU1NS4zMjciIHk9IjMwNi42MjE1Ij4xPC90ZXh0Pjx0ZXh0IGZpbGw9IiMwMDAwMDAiIGZvbnQtZmFtaWx5PSJzYW5zLXNlcmlmIiBmb250LXNpemU9IjEzIiBsZW5ndGhBZGp1c3Q9InNwYWNpbmciIHRleHRMZW5ndGg9IjYiIHg9IjM3MS4wOTkyIiB5PSIxMTI1LjM5MTkiPio8L3RleHQ+PC9nPjwhLS1saW5rIE1lbnVJdGVtIHRvIFJlY29tbWVuZGF0aW9uLS0+PGcgaWQ9ImxpbmtfTWVudUl0ZW1fUmVjb21tZW5kYXRpb24iPjxwYXRoIGNvZGVMaW5lPSIyNDEiIGQ9Ik0yODMuMDMsMTA2MC4wMyBDMjg4LjQ2LDEwNzUuMyAyOTQuNSwxMDkwLjczIDMwMSwxMTA1IEMzMDUuNDgsMTExNC44MiAzMTAuNzYsMTEyNC45MiAzMTYuMjQsMTEzNC42NSAiIGZpbGw9Im5vbmUiIGlkPSJNZW51SXRlbS1SZWNvbW1lbmRhdGlvbiIgc3R5bGU9InN0cm9rZTojMTgxODE4O3N0cm9rZS13aWR0aDoxLjA7Ii8+PHRleHQgZmlsbD0iIzAwMDAwMCIgZm9udC1mYW1pbHk9InNhbnMtc2VyaWYiIGZvbnQtc2l6ZT0iMTMiIGxlbmd0aEFkanVzdD0ic3BhY2luZyIgdGV4dExlbmd0aD0iNzUiIHg9IjMwMiIgeT0iMTEwMy4yODkxIj5yZWNvbW1lbmRlZDwvdGV4dD48dGV4dCBmaWxsPSIjMDAwMDAwIiBmb250LWZhbWlseT0ic2Fucy1zZXJpZiIgZm9udC1zaXplPSIxMyIgbGVuZ3RoQWRqdXN0PSJzcGFjaW5nIiB0ZXh0TGVuZ3RoPSI3IiB4PSIyNzcuOTA0OSIgeT0iMTA4MC4xMDgyIj4xPC90ZXh0Pjx0ZXh0IGZpbGw9IiMwMDAwMDAiIGZvbnQtZmFtaWx5PSJzYW5zLXNlcmlmIiBmb250LXNpemU9IjEzIiBsZW5ndGhBZGp1c3Q9InNwYWNpbmciIHRleHRMZW5ndGg9IjYiIHg9IjMwNC44ODk1IiB5PSIxMTI1LjI0NTMiPio8L3RleHQ+PC9nPjwhLS1saW5rIFJlY29tbWVuZGF0aW9uIHRvIFJlY29tbWVuZGF0aW9uTW9kZWwtLT48ZyBpZD0ibGlua19SZWNvbW1lbmRhdGlvbl9SZWNvbW1lbmRhdGlvbk1vZGVsIj48cGF0aCBjb2RlTGluZT0iMjQyIiBkPSJNMzU1LDEyNTguMTggQzM1NSwxMjgyLjE4IDM1NSwxMzA5LjUyIDM1NSwxMzMyLjc0ICIgZmlsbD0ibm9uZSIgaWQ9IlJlY29tbWVuZGF0aW9uLVJlY29tbWVuZGF0aW9uTW9kZWwiIHN0eWxlPSJzdHJva2U6IzE4MTgxODtzdHJva2Utd2lkdGg6MS4wOyIvPjx0ZXh0IGZpbGw9IiMwMDAwMDAiIGZvbnQtZmFtaWx5PSJzYW5zLXNlcmlmIiBmb250LXNpemU9IjEzIiBsZW5ndGhBZGp1c3Q9InNwYWNpbmciIHRleHRMZW5ndGg9IjI4IiB4PSIzNTYiIHk9IjEzMDEuMjg5MSI+dXNlczwvdGV4dD48dGV4dCBmaWxsPSIjMDAwMDAwIiBmb250LWZhbWlseT0ic2Fucy1zZXJpZiIgZm9udC1zaXplPSIxMyIgbGVuZ3RoQWRqdXN0PSJzcGFjaW5nIiB0ZXh0TGVuZ3RoPSI3IiB4PSIzNDcuNTk1MyIgeT0iMTI3OC40MDk3Ij4xPC90ZXh0Pjx0ZXh0IGZpbGw9IiMwMDAwMDAiIGZvbnQtZmFtaWx5PSJzYW5zLXNlcmlmIiBmb250LXNpemU9IjEzIiBsZW5ndGhBZGp1c3Q9InNwYWNpbmciIHRleHRMZW5ndGg9IjciIHg9IjM0Ny41MDc4IiB5PSIxMzIzLjU1MzQiPjE8L3RleHQ+PC9nPjwhLS1saW5rIFJvbGUgdG8gUGVybWlzc2lvbi0tPjxnIGlkPSJsaW5rX1JvbGVfUGVybWlzc2lvbiI+PHBhdGggY29kZUxpbmU9IjI0NSIgZD0iTTE1OTguMjcsMjk4LjI2IEMxNjEwLjI1LDMzMi43OSAxNjI3Ljc5LDM4My4zMyAxNjM5Ljc2LDQxNy44NCAiIGZpbGw9Im5vbmUiIGlkPSJSb2xlLVBlcm1pc3Npb24iIHN0eWxlPSJzdHJva2U6IzE4MTgxODtzdHJva2Utd2lkdGg6MS4wOyIvPjx0ZXh0IGZpbGw9IiMwMDAwMDAiIGZvbnQtZmFtaWx5PSJzYW5zLXNlcmlmIiBmb250LXNpemU9IjEzIiBsZW5ndGhBZGp1c3Q9InNwYWNpbmciIHRleHRMZW5ndGg9IjIxIiB4PSIxNjIwIiB5PSIzNTYuMjg5MSI+aGFzPC90ZXh0Pjx0ZXh0IGZpbGw9IiMwMDAwMDAiIGZvbnQtZmFtaWx5PSJzYW5zLXNlcmlmIiBmb250LXNpemU9IjEzIiBsZW5ndGhBZGp1c3Q9InNwYWNpbmciIHRleHRMZW5ndGg9IjYiIHg9IjE1OTMuOTcxIiB5PSIzMTguMjA2MyI+KjwvdGV4dD48dGV4dCBmaWxsPSIjMDAwMDAwIiBmb250LWZhbWlseT0ic2Fucy1zZXJpZiIgZm9udC1zaXplPSIxMyIgbGVuZ3RoQWRqdXN0PSJzcGFjaW5nIiB0ZXh0TGVuZ3RoPSI2IiB4PSIxNjMwLjY2NDMiIHk9IjQwOC41MTUyIj4qPC90ZXh0PjwvZz48IS0tbGluayBVc2VyIHRvIFJvbGUtLT48ZyBpZD0ibGlua19Vc2VyX1JvbGUiPjxwYXRoIGNvZGVMaW5lPSIyNDYiIGQ9Ik04OTMuNzUsODYuMjUgQzEwMTAuNDksMTEwLjA4IDEyMjguNDYsMTU2LjMxIDE0MTIsMjA1IEMxNDUwLjEsMjE1LjExIDE0OTIuNDMsMjI4LjA0IDE1MjUuNjcsMjM4LjYgIiBmaWxsPSJub25lIiBpZD0iVXNlci1Sb2xlIiBzdHlsZT0ic3Ryb2tlOiMxODE4MTg7c3Ryb2tlLXdpZHRoOjEuMDsiLz48dGV4dCBmaWxsPSIjMDAwMDAwIiBmb250LWZhbWlseT0ic2Fucy1zZXJpZiIgZm9udC1zaXplPSIxMyIgbGVuZ3RoQWRqdXN0PSJzcGFjaW5nIiB0ZXh0TGVuZ3RoPSIyMSIgeD0iMTI4MiIgeT0iMTczLjI4OTEiPmhhczwvdGV4dD48dGV4dCBmaWxsPSIjMDAwMDAwIiBmb250LWZhbWlseT0ic2Fucy1zZXJpZiIgZm9udC1zaXplPSIxMyIgbGVuZ3RoQWRqdXN0PSJzcGFjaW5nIiB0ZXh0TGVuZ3RoPSI3IiB4PSI5MDEuNTIwNyIgeT0iODYuNTg1MiI+MTwvdGV4dD48dGV4dCBmaWxsPSIjMDAwMDAwIiBmb250LWZhbWlseT0ic2Fucy1zZXJpZiIgZm9udC1zaXplPSIxMyIgbGVuZ3RoQWRqdXN0PSJzcGFjaW5nIiB0ZXh0TGVuZ3RoPSI3IiB4PSIxNTExLjAxMjYiIHk9IjIzNC42NjgyIj4xPC90ZXh0PjwvZz48IS0tU1JDPVtaTFZGUi1pczNCeHhocDFvVVMyMDdkT0RUZGRoTXU2V1JQUXpoaGtoRGNDQmlvTEZhamk1c1Z4dEtKeWlLeFJTZk9WNi1hWUhkcU1BZkItS3QtM0MxUElsNmJIZnM1aTcxR1ozcFNLWnJ3QjRsbjRWM3ROOVhJYkZabjRIaDhWb25JV2tjbEJyVUZaanpIU2Q2ZlpNN3JCTEdVR213MWRsQ2hoNEhGNWxLTm9Qc0RvRnNpWC1vSVlZZGJLTGJZYXBMalNBakFSVVhyT0FFOHh6NnN1YkM3Y2hYeVY0X1RVd3ZvQnJ4UTVoUzg3RndfRjhzdGVueDduRVJOZDhzekJzLUxQUnRtN0xIeUxHYVhXYWtCVWc4ZjJRaGdHbWgzODdTUFF2T3R5NkNRUU03VTlqemxZT01ianZVVjF1M1JmSVYzMVNZWXFsMW1GenNmRDNZSlRTZlh1OVgtMkJQajI2UnZTMlliVTBtZWh0aEZEN21KZ2ZFNlhoQkFYODBuWlpRTHFueklSUkl3c09XR1hnNDllUl9XdWxTYkhMdWhiMmxLUWdJLXdMVnJOckNmYnQzams1cnZMc2lPWExjanhYVlB0WURxbDlfZmlYcDJhcDliYmxmNjdUcnJ3RWs5Yy0gLUMwa1U4bWN0SzM5ZGhuMklkUzJoekg2SWZZLUdzMFJ6NUEtME5tNnF5ZXdkLVdkZ2Y4YjRhSk5KT2tkbnhOZWM5UVJUUnF2QU5kYzdVSkJwWUl5SmtiWUx4VjRoME5VajFXNEVMZ2g1bGJPOFFwaEczTlB2M2JBbXl5U3F5bGNUQzhpYU5YUVdhMnRTQUZ3bHJ5NklBS3pMYkJNOTZia1U2LWxWSl91VzZ1SGpSUXNvSmhmekpDMldSSDF2QlpIOUJ4M0V1VUZQSUxxczVHNXhVQU1LellnUDdadFJTVUE5SzdzeFhBR3VfMC12V0lkMTAtWUtMM3ByTHFZazJWQTh2MklkVjZqQ3QxNVA1ckNQdllNYnJLdnBUcE9IVHFEdzV5Wnl1UmpJSUlETWV4M0NZaTM1ZmdxTW9veGFDTmtQUHFSN3Nna0FyLXB2aWkxVm16U2tHbjlBbWNzdUhFTXVQUGZjMGdUdHhJYy1FaG9FQ0ZKMndPdjF2X196dVlJTHRmdWQ3VmNpczFrcFpfWmx3aFRRanIxd2ZjeWtTTGp4VFJoRmliRzFxWG9VaWR6dnF0X3ZROG50YS1vTUdtZjRWUUNFamNhVDExOGV1NzB5eGZVOEZlNHh6M2JSeDJfS05NY2pZcmFxdXNjdTJxdEV2X0ZjNjhBUThRYlhmeW5EUmtqNE1vYi0xYmxobjE2NmM5cmNjU2lUNW9DQzB4eTB2SFVIRENlbldLa2FaR1pwMkpzOVlSZ3lXSWd2cmg3NHpNSGNlcFRJeWJid3hCOGVpZkM3TlVzNXJmVjExUXpEa0JSOVJqcG53OVJGY1lCa3V5Q0JiZkd0NjJrR2s2MGRfd3ZrdWpqYnExazIyVGhEcVhSQ3NHMHhmZDAzREhrZFltOGxsam5MLUFNdEd5eEZ6Sms5cXN4dG81a0VFUDJucjVLNW12Vng3SGJUSC1yeE5PX3RnZGF2VUI3MmphLXBOcHhTa1hPWFF1ZE9EQjFkc2RHc2ZUT3JlZmZqTE84MHozVVZZdXU0ZWluUEtxMFZ2UVpaN1UyY3NicHBiOUZIZXN6bEktMEt4MGtMYnJ6VXF6bXZManFyYWRldGxsbzB6QzFaVVYzNXhNMm1IV0tjX29hanM5eUJ0VDZ0amRWOTNYNXQ2N0QxUWphdXh1cWhQOVpxcVJKaXAyNnN5QWgtQTZUa1ZNSTc5YjE0V29JSjZfR0lUNWVkRGJUOUVWNkw4SGNJWHBHamtNWVIteldaYWNnNjR5X3hKVTVfblhEWmRWSGFKMFNLbHNmSS1QVUZsUTVPa3VHc0hKN21nX3BFZEVBRW50N1lYUkRaVG44LVc1OW1KY1Fkc2p4MEVmWThJR1hvSE5sLU9QYkFjcFhDOTk2ZjVad0N0VkxZaGdHcXh0eDNtMDBdLS0+PC9nPjwvc3ZnPg==;" vertex="1" parent="1">
            <mxGeometry x="-410" y="-3270" width="1320" height="1097.72" as="geometry" />
          </mxCell>
        </UserObject>
      </root>
    </mxGraphModel>
  </diagram>
</mxfile>
